SeanSlab_1.ufo
<glyph name="parenright" format="1">
  <advance width="338"/>
  <unicode hex="0029"/>
  <outline>
    <contour>
      <point x="79" y="-295" type="curve"/>
      <point x="229" y="-92"/>
      <point x="302" y="76"/>
      <point x="302" y="329" type="curve"/>
      <point x="302" y="576"/>
      <point x="236" y="741"/>
      <point x="82" y="934" type="curve"/>
      <point x="-2" y="856"/>
      <point x="82" y="934"/>
      <point x="-2" y="856" type="curve"/>
      <point x="127" y="688"/>
      <point x="162" y="536"/>
      <point x="162" y="324" type="curve"/>
      <point x="162" y="108"/>
      <point x="119" y="-46"/>
      <point x="-5" y="-224" type="curve"/>
      <point x="79" y="-295"/>
      <point x="-5" y="-224"/>
    </contour>
  </outline>
</glyph>
<glyph name="plus" format="1">
  <advance width="595"/>
  <unicode hex="002B"/>
  <outline>
    <contour>
      <point x="37" y="255" type="curve"/>
      <point x="558" y="255" type="line"/>
      <point x="558" y="376"/>
      <point x="558" y="255"/>
      <point x="558" y="376" type="curve"/>
      <point x="37" y="376" type="line"/>
      <point x="37" y="255"/>
      <point x="37" y="376"/>
    </contour>
    <contour>
      <point x="364" y="58" type="curve"/>
      <point x="364" y="578" type="line"/>
      <point x="221" y="578"/>
      <point x="374" y="578"/>
      <point x="231" y="578" type="curve"/>
      <point x="231" y="58" type="line"/>
      <point x="374" y="58"/>
      <point x="221" y="58"/>
    </contour>
  </outline>
</glyph>
<glyph name="comma" format="1">
  <advance width="284"/>
  <unicode hex="002C"/>
  <outline>
    <contour>
      <point x="58" y="-119" type="line"/>
      <point x="155" y="-119"/>
      <point x="219" y="-49"/>
      <point x="219" y="58" type="curve"/>
      <point x="219" y="147"/>
      <point x="185" y="193"/>
      <point x="138" y="193" type="curve"/>
      <point x="95" y="193"/>
      <point x="65" y="168"/>
      <point x="65" y="121" type="curve"/>
      <point x="65" y="83"/>
      <point x="87" y="53"/>
      <point x="125" y="53" type="curve"/>
      <point x="125" y="26"/>
      <point x="123" y="-29"/>
      <point x="58" y="-41" type="curve"/>
    </contour>
  </outline>
</glyph>
<glyph name="six" format="1">
  <advance width="537"/>
  <unicode hex="0036"/>
  <outline>
    <contour>
      <point x="163" y="209" type="curve"/>
      <point x="180" y="280"/>
      <point x="212" y="335"/>
      <point x="275" y="335" type="curve"/>
      <point x="333" y="335"/>
      <point x="350" y="288"/>
      <point x="350" y="226" type="curve"/>
      <point x="350" y="167"/>
      <point x="331" y="120"/>
      <point x="278" y="120" type="curve"/>
      <point x="209" y="120"/>
      <point x="183" y="180"/>
      <point x="183" y="260" type="curve"/>
      <point x="183" y="446"/>
      <point x="275" y="560"/>
      <point x="461" y="625" type="curve"/>
      <point x="422" y="728"/>
      <point x="461" y="625"/>
      <point x="422" y="728" type="curve"/>
      <point x="184" y="648"/>
      <point x="46" y="502"/>
      <point x="46" y="254" type="curve"/>
      <point x="46" y="96"/>
      <point x="126" y="-12"/>
      <point x="276" y="-12" type="curve"/>
      <point x="415" y="-12"/>
      <point x="493" y="83"/>
      <point x="493" y="226" type="curve"/>
      <point x="493" y="363"/>
      <point x="423" y="451"/>
      <point x="301" y="451" type="curve"/>
      <point x="171" y="451"/>
      <point x="101" y="323"/>
      <point x="96" y="237" type="curve"/>
      <point x="163" y="209"/>
      <point x="96" y="237"/>
    </contour>
  </outline>
</glyph>
<glyph name="eight" format="1">
  <advance width="535"/>
  <unicode hex="0038"/>
  <outline>
    <contour>
      <point x="66" y="536" type="curve"/>
      <point x="66" y="432"/>
      <point x="134" y="390"/>
      <point x="226" y="338" type="curve"/>
      <point x="292" y="299"/>
      <point x="340" y="265"/>
      <point x="340" y="195" type="curve"/>
      <point x="340" y="144"/>
      <point x="317" y="111"/>
      <point x="269" y="111" type="curve"/>
      <point x="219" y="111"/>
      <point x="195" y="143"/>
      <point x="195" y="195" type="curve"/>
      <point x="195" y="267"/>
      <point x="244" y="297"/>
      <point x="311" y="337" type="curve"/>
      <point x="400" y="390"/>
      <point x="469" y="432"/>
      <point x="469" y="534" type="curve"/>
      <point x="469" y="659"/>
      <point x="396" y="727"/>
      <point x="269" y="727" type="curve"/>
      <point x="144" y="727"/>
      <point x="66" y="658"/>
      <point x="66" y="536" type="curve"/>
      <point x="209" y="536"/>
      <point x="66" y="536"/>
      <point x="209" y="536" type="curve"/>
      <point x="209" y="579"/>
      <point x="224" y="612"/>
      <point x="265" y="612" type="curve"/>
      <point x="307" y="612"/>
      <point x="326" y="581"/>
      <point x="326" y="534" type="curve"/>
      <point x="326" y="474"/>
      <point x="281" y="448"/>
      <point x="225" y="416" type="curve"/>
      <point x="124" y="357"/>
      <point x="52" y="309"/>
      <point x="52" y="195" type="curve"/>
      <point x="52" y="66"/>
      <point x="131" y="-5"/>
      <point x="262" y="-5" type="curve"/>
      <point x="397" y="-5"/>
      <point x="483" y="64"/>
      <point x="483" y="195" type="curve"/>
      <point x="483" y="308"/>
      <point x="411" y="359"/>
      <point x="312" y="417" type="curve"/>
      <point x="255" y="451"/>
      <point x="209" y="474"/>
      <point x="209" y="536" type="curve"/>
      <point x="66" y="536"/>
      <point x="209" y="536"/>
    </contour>
  </outline>
</glyph>
<glyph name="semicolon" format="1">
  <advance width="292"/>
  <unicode hex="003B"/>
  <outline>
    <contour>
      <point x="61" y="-216" type="line"/>
      <point x="167" y="-216"/>
      <point x="236" y="-146"/>
      <point x="236" y="-39" type="curve"/>
      <point x="236" y="50"/>
      <point x="199" y="96"/>
      <point x="148" y="96" type="curve"/>
      <point x="101" y="96"/>
      <point x="68" y="71"/>
      <point x="68" y="24" type="curve"/>
      <point x="68" y="-14"/>
      <point x="91" y="-44"/>
      <point x="134" y="-44" type="curve"/>
      <point x="134" y="-71"/>
      <point x="132" y="-126"/>
      <point x="61" y="-138" type="curve"/>
    </contour>
    <contour>
      <point x="221" y="376" type="curve"/>
      <point x="221" y="424"/>
      <point x="189" y="448"/>
      <point x="146" y="448" type="curve"/>
      <point x="102" y="448"/>
      <point x="73" y="422"/>
      <point x="73" y="376" type="curve"/>
      <point x="221" y="376"/>
      <point x="73" y="376"/>
      <point x="221" y="376" type="curve"/>
      <point x="221" y="327"/>
      <point x="190" y="305"/>
      <point x="146" y="305" type="curve"/>
      <point x="101" y="305"/>
      <point x="73" y="329"/>
      <point x="73" y="376" type="curve"/>
      <point x="221" y="376"/>
      <point x="73" y="376"/>
    </contour>
  </outline>
</glyph>
<glyph name="B" format="1">
  <advance width="611"/>
  <unicode hex="0042"/>
  <outline>
    <contour>
      <point x="196" y="722" type="curve"/>
      <point x="152" y="722"/>
      <point x="107" y="722"/>
      <point x="63" y="722" type="curve"/>
      <point x="63" y="612"/>
      <point x="63" y="722"/>
      <point x="63" y="612" type="curve"/>
      <point x="196" y="612"/>
      <point x="63" y="612"/>
      <point x="196" y="612" type="curve"/>
      <point x="196" y="722"/>
      <point x="196" y="612"/>
    </contour>
    <contour>
      <point x="195" y="110" type="curve"/>
      <point x="62" y="110"/>
      <point x="195" y="110"/>
      <point x="62" y="110" type="curve"/>
      <point x="62" y="0"/>
      <point x="62" y="110"/>
      <point x="62" y="0" type="curve"/>
      <point x="107" y="0"/>
      <point x="152" y="0"/>
      <point x="195" y="0" type="curve"/>
      <point x="195" y="110"/>
      <point x="195" y="0"/>
    </contour>
    <contour>
      <point x="188" y="612" type="curve"/>
      <point x="239" y="612"/>
      <point x="271" y="612"/>
      <point x="321" y="612" type="curve"/>
      <point x="371" y="612"/>
      <point x="389" y="580"/>
      <point x="389" y="536" type="curve"/>
      <point x="389" y="492"/>
      <point x="370" y="459"/>
      <point x="325" y="459" type="curve"/>
      <point x="274" y="459"/>
      <point x="240" y="459"/>
      <point x="188" y="459" type="curve"/>
      <point x="188" y="417"/>
      <point x="188" y="390"/>
      <point x="188" y="348" type="curve"/>
      <point x="222" y="348"/>
      <point x="244" y="348"/>
      <point x="278" y="348" type="curve"/>
      <point x="396" y="348"/>
      <point x="530" y="398"/>
      <point x="530" y="530" type="curve"/>
      <point x="530" y="652"/>
      <point x="455" y="722"/>
      <point x="331" y="722" type="curve"/>
      <point x="277" y="722"/>
      <point x="242" y="722"/>
      <point x="188" y="722" type="curve"/>
      <point x="188" y="680"/>
      <point x="188" y="654"/>
    </contour>
    <contour>
      <point x="271" y="0" type="curve"/>
      <point x="271" y="241"/>
      <point x="271" y="481"/>
      <point x="271" y="722" type="curve"/>
      <point x="122" y="722"/>
      <point x="271" y="722"/>
      <point x="122" y="722" type="curve"/>
      <point x="122" y="481"/>
      <point x="122" y="241"/>
      <point x="122" y="0" type="curve"/>
      <point x="271" y="0"/>
      <point x="122" y="0"/>
    </contour>
    <contour>
      <point x="188" y="348" type="curve"/>
      <point x="240" y="348"/>
      <point x="274" y="348"/>
      <point x="325" y="348" type="curve"/>
      <point x="397" y="348"/>
      <point x="424" y="297"/>
      <point x="424" y="228" type="curve"/>
      <point x="424" y="159"/>
      <point x="394" y="110"/>
      <point x="326" y="110" type="curve"/>
      <point x="274" y="110"/>
      <point x="241" y="110"/>
      <point x="188" y="110" type="curve"/>
      <point x="188" y="68"/>
      <point x="188" y="42"/>
      <point x="188" y="0" type="curve"/>
      <point x="244" y="0"/>
      <point x="280" y="0"/>
      <point x="336" y="0" type="curve"/>
      <point x="479" y="0"/>
      <point x="567" y="82"/>
      <point x="567" y="224" type="curve"/>
      <point x="567" y="383"/>
      <point x="434" y="459"/>
      <point x="278" y="459" type="curve"/>
      <point x="244" y="459"/>
      <point x="222" y="459"/>
      <point x="188" y="459" type="curve"/>
      <point x="188" y="417"/>
      <point x="188" y="390"/>
    </contour>
  </outline>
</glyph>
<glyph name="L" format="1">
  <advance width="508"/>
  <unicode hex="004C"/>
  <outline>
    <contour>
      <point x="176" y="780" type="move" name="top"/>
    </contour>
    <contour>
      <point x="324" y="4" type="move" name="bottom"/>
    </contour>
    <contour>
      <point x="492" y="55" type="curve"/>
      <point x="492" y="175"/>
      <point x="492" y="55"/>
      <point x="492" y="175" type="curve"/>
      <point x="380" y="175"/>
      <point x="492" y="175"/>
      <point x="380" y="175" type="curve"/>
      <point x="380" y="55"/>
      <point x="380" y="175"/>
      <point x="380" y="55" type="curve"/>
      <point x="492" y="55"/>
      <point x="380" y="55"/>
    </contour>
    <contour>
      <point x="176" y="110" type="curve"/>
      <point x="39" y="110"/>
      <point x="176" y="110"/>
      <point x="39" y="110" type="curve"/>
      <point x="38" y="0"/>
      <point x="39" y="110"/>
      <point x="38" y="0" type="curve"/>
      <point x="84" y="0"/>
      <point x="130" y="0"/>
      <point x="176" y="0" type="curve"/>
      <point x="176" y="110"/>
      <point x="176" y="0"/>
    </contour>
    <contour>
      <point x="176" y="722" type="curve"/>
      <point x="130" y="722"/>
      <point x="84" y="722"/>
      <point x="39" y="722" type="curve"/>
      <point x="38" y="612"/>
      <point x="39" y="722"/>
      <point x="38" y="612" type="curve"/>
      <point x="176" y="612"/>
      <point x="38" y="612"/>
      <point x="176" y="612" type="curve"/>
      <point x="176" y="722"/>
      <point x="176" y="612"/>
    </contour>
    <contour>
      <point x="176" y="612" type="curve"/>
      <point x="313" y="612"/>
      <point x="176" y="612"/>
      <point x="313" y="612" type="curve"/>
      <point x="313" y="722"/>
      <point x="313" y="612"/>
      <point x="313" y="722" type="curve"/>
      <point x="267" y="722"/>
      <point x="221" y="722"/>
      <point x="176" y="722" type="curve"/>
      <point x="176" y="612"/>
      <point x="176" y="722"/>
    </contour>
    <contour>
      <point x="248" y="0" type="curve"/>
      <point x="248" y="241"/>
      <point x="248" y="481"/>
      <point x="248" y="722" type="curve"/>
      <point x="105" y="722"/>
      <point x="248" y="722"/>
      <point x="105" y="722" type="curve"/>
      <point x="105" y="481"/>
      <point x="105" y="241"/>
      <point x="105" y="0" type="curve"/>
      <point x="248" y="0"/>
      <point x="105" y="0"/>
    </contour>
    <contour>
      <point x="176" y="0" type="curve"/>
      <point x="281" y="0"/>
      <point x="387" y="0"/>
      <point x="492" y="0" type="curve"/>
      <point x="492" y="110"/>
      <point x="492" y="0"/>
      <point x="492" y="110" type="curve"/>
      <point x="387" y="110"/>
      <point x="281" y="110"/>
      <point x="176" y="110" type="curve"/>
      <point x="176" y="0"/>
      <point x="176" y="110"/>
    </contour>
  </outline>
</glyph>
<glyph name="W" format="1">
  <advance width="804"/>
  <unicode hex="0057"/>
  <outline>
    <contour>
      <point x="138" y="612" type="curve"/>
      <point x="245" y="612"/>
      <point x="138" y="612"/>
      <point x="245" y="612" type="curve"/>
      <point x="245" y="722"/>
      <point x="245" y="612"/>
      <point x="245" y="722" type="curve"/>
      <point x="210" y="722"/>
      <point x="174" y="722"/>
      <point x="138" y="722" type="curve"/>
      <point x="138" y="612"/>
      <point x="138" y="722"/>
    </contour>
    <contour>
      <point x="128" y="722" type="curve"/>
      <point x="89" y="722"/>
      <point x="50" y="722"/>
      <point x="11" y="722" type="curve"/>
      <point x="11" y="612"/>
      <point x="11" y="722"/>
      <point x="11" y="612" type="curve"/>
      <point x="128" y="612"/>
      <point x="11" y="612"/>
      <point x="128" y="612" type="curve"/>
      <point x="128" y="722"/>
      <point x="128" y="612"/>
    </contour>
    <contour>
      <point x="675" y="722" type="curve"/>
      <point x="639" y="722"/>
      <point x="603" y="722"/>
      <point x="568" y="722" type="curve"/>
      <point x="568" y="612"/>
      <point x="568" y="722"/>
      <point x="568" y="612" type="curve"/>
      <point x="675" y="612"/>
      <point x="568" y="612"/>
      <point x="675" y="612" type="curve"/>
      <point x="675" y="722"/>
      <point x="675" y="612"/>
    </contour>
    <contour>
      <point x="680" y="612" type="curve"/>
      <point x="797" y="612"/>
      <point x="680" y="612"/>
      <point x="797" y="612" type="curve"/>
      <point x="797" y="722"/>
      <point x="797" y="612"/>
      <point x="797" y="722" type="curve"/>
      <point x="759" y="722"/>
      <point x="719" y="722"/>
      <point x="680" y="722" type="curve"/>
      <point x="680" y="612"/>
      <point x="680" y="722"/>
    </contour>
    <contour>
      <point x="315" y="0" type="curve"/>
      <point x="366" y="241"/>
      <point x="416" y="481"/>
      <point x="466" y="722" type="curve"/>
      <point x="346" y="722"/>
      <point x="466" y="722"/>
      <point x="346" y="722" type="curve"/>
      <point x="300" y="482"/>
      <point x="256" y="243"/>
      <point x="209" y="0" type="curve"/>
      <point x="325" y="0"/>
      <point x="199" y="0"/>
    </contour>
    <contour>
      <point x="351" y="722" type="curve"/>
      <point x="396" y="481"/>
      <point x="441" y="241"/>
      <point x="487" y="0" type="curve"/>
      <point x="603" y="0"/>
      <point x="473" y="0"/>
      <point x="589" y="0" type="curve"/>
      <point x="548" y="245"/>
      <point x="511" y="481"/>
      <point x="471" y="722" type="curve"/>
      <point x="351" y="722"/>
      <point x="471" y="722"/>
    </contour>
    <contour>
      <point x="57" y="722" type="curve"/>
      <point x="103" y="481"/>
      <point x="149" y="241"/>
      <point x="194" y="0" type="curve"/>
      <point x="311" y="0"/>
      <point x="194" y="0"/>
      <point x="311" y="0" type="curve"/>
      <point x="267" y="241"/>
      <point x="223" y="481"/>
      <point x="180" y="722" type="curve"/>
      <point x="57" y="722"/>
      <point x="180" y="722"/>
    </contour>
    <contour>
      <point x="628" y="722" type="curve"/>
      <point x="583" y="481"/>
      <point x="537" y="241"/>
      <point x="491" y="0" type="curve"/>
      <point x="608" y="0"/>
      <point x="491" y="0"/>
      <point x="608" y="0" type="curve"/>
      <point x="655" y="241"/>
      <point x="703" y="481"/>
      <point x="751" y="722" type="curve"/>
      <point x="628" y="722"/>
      <point x="751" y="722"/>
    </contour>
  </outline>
</glyph>
<glyph name="X" format="1">
  <advance width="603"/>
  <unicode hex="0058"/>
  <outline>
    <contour>
      <point x="153" y="0" type="curve"/>
      <point x="195" y="0"/>
      <point x="153" y="0"/>
      <point x="280" y="0" type="curve"/>
      <point x="280" y="110"/>
      <point x="280" y="0"/>
      <point x="280" y="110" type="curve"/>
      <point x="153" y="110"/>
      <point x="280" y="110"/>
      <point x="153" y="110" type="curve"/>
      <point x="153" y="0"/>
      <point x="153" y="110"/>
    </contour>
    <contour>
      <point x="133" y="110" type="curve"/>
      <point x="16" y="110"/>
      <point x="133" y="110"/>
      <point x="16" y="110" type="curve"/>
      <point x="15" y="0"/>
      <point x="16" y="110"/>
      <point x="15" y="0" type="curve"/>
      <point x="54" y="0"/>
      <point x="94" y="0"/>
      <point x="133" y="0" type="curve"/>
      <point x="133" y="110"/>
      <point x="133" y="0"/>
    </contour>
    <contour>
      <point x="467" y="0" type="curve"/>
      <point x="506" y="0"/>
      <point x="546" y="0"/>
      <point x="584" y="0" type="curve"/>
      <point x="584" y="110"/>
      <point x="584" y="0"/>
      <point x="584" y="110" type="curve"/>
      <point x="467" y="110"/>
      <point x="584" y="110"/>
      <point x="467" y="110" type="curve"/>
      <point x="467" y="0"/>
      <point x="467" y="110"/>
    </contour>
    <contour>
      <point x="447" y="110" type="curve"/>
      <point x="320" y="110"/>
      <point x="447" y="110"/>
      <point x="320" y="110" type="curve"/>
      <point x="320" y="0"/>
      <point x="320" y="110"/>
      <point x="320" y="0" type="curve"/>
      <point x="362" y="0"/>
      <point x="405" y="0"/>
      <point x="447" y="0" type="curve"/>
      <point x="447" y="110"/>
      <point x="447" y="0"/>
    </contour>
    <contour>
      <point x="453" y="612" type="curve"/>
      <point x="570" y="612"/>
      <point x="453" y="612"/>
      <point x="570" y="612" type="curve"/>
      <point x="570" y="722"/>
      <point x="570" y="612"/>
      <point x="570" y="722" type="curve"/>
      <point x="531" y="722"/>
      <point x="491" y="722"/>
      <point x="453" y="722" type="curve"/>
      <point x="453" y="612"/>
      <point x="453" y="722"/>
    </contour>
    <contour>
      <point x="468" y="722" type="curve"/>
      <point x="422" y="722"/>
      <point x="376" y="722"/>
      <point x="330" y="722" type="curve"/>
      <point x="330" y="612"/>
      <point x="330" y="722"/>
      <point x="330" y="612" type="curve"/>
      <point x="468" y="612"/>
      <point x="330" y="612"/>
      <point x="468" y="612" type="curve"/>
      <point x="468" y="722"/>
      <point x="468" y="612"/>
    </contour>
    <contour>
      <point x="150" y="722" type="curve"/>
      <point x="112" y="722"/>
      <point x="72" y="722"/>
      <point x="33" y="722" type="curve"/>
      <point x="33" y="612"/>
      <point x="33" y="722"/>
      <point x="33" y="612" type="curve"/>
      <point x="150" y="612"/>
      <point x="33" y="612"/>
      <point x="150" y="612" type="curve"/>
      <point x="150" y="722"/>
      <point x="150" y="612"/>
    </contour>
    <contour>
      <point x="135" y="612" type="curve"/>
      <point x="273" y="612"/>
      <point x="135" y="612"/>
      <point x="273" y="612" type="curve"/>
      <point x="273" y="722"/>
      <point x="273" y="612"/>
      <point x="273" y="722" type="curve"/>
      <point x="227" y="722"/>
      <point x="181" y="722"/>
      <point x="135" y="722" type="curve"/>
      <point x="135" y="612"/>
      <point x="135" y="722"/>
    </contour>
    <contour>
      <point x="414" y="722" type="curve"/>
      <point x="289" y="481"/>
      <point x="164" y="241"/>
      <point x="39" y="0" type="curve"/>
      <point x="179" y="0"/>
      <point x="39" y="0"/>
      <point x="179" y="0" type="curve"/>
      <point x="303" y="241"/>
      <point x="427" y="481"/>
      <point x="551" y="722" type="curve"/>
      <point x="414" y="722"/>
      <point x="551" y="722"/>
    </contour>
    <contour>
      <point x="54" y="722" type="curve"/>
      <point x="177" y="481"/>
      <point x="300" y="241"/>
      <point x="423" y="0" type="curve"/>
      <point x="562" y="0"/>
      <point x="423" y="0"/>
      <point x="562" y="0" type="curve"/>
      <point x="438" y="241"/>
      <point x="315" y="481"/>
      <point x="191" y="722" type="curve"/>
      <point x="54" y="722"/>
      <point x="191" y="722"/>
    </contour>
  </outline>
</glyph>
<glyph name="backslash" format="1">
  <advance width="491"/>
  <unicode hex="005C"/>
  <outline>
    <contour>
      <point x="467" y="-68" type="curve"/>
      <point x="369" y="236"/>
      <point x="271" y="540"/>
      <point x="173" y="844" type="curve"/>
      <point x="24" y="844"/>
      <point x="173" y="844"/>
      <point x="24" y="844" type="curve"/>
      <point x="122" y="540"/>
      <point x="220" y="236"/>
      <point x="318" y="-68" type="curve"/>
      <point x="467" y="-68"/>
      <point x="318" y="-68"/>
    </contour>
  </outline>
</glyph>
<glyph name="k" format="1">
  <advance width="534"/>
  <unicode hex="006B"/>
  <outline>
    <contour>
      <point x="352" y="0" type="move" name="bottom"/>
    </contour>
    <contour>
      <point x="143" y="110" type="curve"/>
      <point x="6" y="110"/>
      <point x="143" y="110"/>
      <point x="6" y="110" type="curve"/>
      <point x="6" y="0"/>
      <point x="6" y="110"/>
      <point x="6" y="0" type="curve"/>
      <point x="52" y="0"/>
      <point x="97" y="-1"/>
      <point x="143" y="-1" type="curve"/>
      <point x="143" y="110"/>
      <point x="143" y="-1"/>
    </contour>
    <contour>
      <point x="387" y="0" type="curve"/>
      <point x="430" y="0"/>
      <point x="474" y="0"/>
      <point x="517" y="0" type="curve"/>
      <point x="517" y="110"/>
      <point x="517" y="0"/>
      <point x="517" y="110" type="curve"/>
      <point x="390" y="110"/>
      <point x="517" y="110"/>
      <point x="390" y="110" type="curve"/>
      <point x="390" y="0"/>
      <point x="387" y="110"/>
    </contour>
    <contour>
      <point x="401" y="423" type="curve"/>
      <point x="498" y="423"/>
      <point x="401" y="423"/>
      <point x="498" y="423" type="curve"/>
      <point x="498" y="533"/>
      <point x="498" y="423"/>
      <point x="498" y="533" type="curve"/>
      <point x="466" y="533"/>
      <point x="433" y="533"/>
      <point x="401" y="533" type="curve"/>
      <point x="401" y="423"/>
      <point x="401" y="533"/>
    </contour>
    <contour>
      <point x="143" y="-1" type="curve"/>
      <point x="183" y="-1"/>
      <point x="143" y="-1"/>
      <point x="261" y="0" type="curve"/>
      <point x="261" y="110"/>
      <point x="261" y="0"/>
      <point x="261" y="110" type="curve"/>
      <point x="143" y="110"/>
      <point x="261" y="110"/>
      <point x="143" y="110" type="curve"/>
      <point x="143" y="-1"/>
      <point x="143" y="110"/>
    </contour>
    <contour>
      <point x="431" y="533" type="curve"/>
      <point x="371" y="533"/>
      <point x="310" y="533"/>
      <point x="249" y="533" type="curve"/>
      <point x="249" y="423"/>
      <point x="249" y="533"/>
      <point x="249" y="423" type="curve"/>
      <point x="431" y="423"/>
      <point x="249" y="423"/>
      <point x="431" y="423" type="curve"/>
      <point x="431" y="533"/>
      <point x="431" y="423"/>
    </contour>
    <contour>
      <point x="145" y="799" type="curve"/>
      <point x="99" y="799"/>
      <point x="53" y="800"/>
      <point x="7" y="800" type="curve"/>
      <point x="7" y="690"/>
      <point x="7" y="800"/>
      <point x="7" y="690" type="curve"/>
      <point x="145" y="689"/>
      <point x="7" y="690"/>
      <point x="145" y="689" type="curve"/>
      <point x="145" y="799"/>
      <point x="145" y="689"/>
    </contour>
    <contour>
      <point x="215" y="0" type="curve"/>
      <point x="215" y="800" type="line"/>
      <point x="72" y="800"/>
      <point x="215" y="800"/>
      <point x="72" y="800" type="curve"/>
      <point x="72" y="533"/>
      <point x="72" y="267"/>
      <point x="72" y="0" type="curve"/>
      <point x="215" y="0"/>
      <point x="72" y="0"/>
    </contour>
    <contour>
      <point x="366" y="533" type="curve"/>
      <point x="193" y="275" type="line"/>
      <point x="328" y="275"/>
      <point x="193" y="275"/>
      <point x="328" y="275" type="curve"/>
      <point x="480" y="480" type="line"/>
      <point x="366" y="480"/>
      <point x="480" y="533"/>
    </contour>
    <contour>
      <point x="489" y="70" type="curve"/>
      <point x="328" y="275" type="line"/>
      <point x="193" y="275"/>
      <point x="328" y="275"/>
      <point x="193" y="275" type="curve"/>
      <point x="386" y="0" type="line"/>
      <point x="489" y="0"/>
      <point x="386" y="70"/>
    </contour>
  </outline>
</glyph>
<glyph name="yen" format="1">
  <advance width="622"/>
  <unicode hex="00A5"/>
  <outline>
    <contour>
      <point x="469" y="420" type="curve"/>
      <point x="416" y="420"/>
      <point x="363" y="420"/>
      <point x="311" y="420" type="curve"/>
      <point x="311" y="298"/>
      <point x="311" y="420"/>
      <point x="311" y="298" type="curve"/>
      <point x="363" y="298"/>
      <point x="416" y="298"/>
      <point x="469" y="298" type="curve"/>
      <point x="469" y="420"/>
      <point x="469" y="298"/>
    </contour>
    <contour>
      <point x="289" y="420" type="curve"/>
      <point x="237" y="420"/>
      <point x="185" y="420"/>
      <point x="134" y="420" type="curve"/>
      <point x="134" y="298"/>
      <point x="134" y="420"/>
      <point x="134" y="298" type="curve"/>
      <point x="185" y="298"/>
      <point x="237" y="298"/>
      <point x="289" y="298" type="curve"/>
      <point x="289" y="420"/>
      <point x="289" y="298"/>
    </contour>
    <contour>
      <point x="469" y="276" type="curve"/>
      <point x="357" y="276"/>
      <point x="245" y="276"/>
      <point x="134" y="276" type="curve"/>
      <point x="134" y="155"/>
      <point x="134" y="276"/>
      <point x="134" y="155" type="curve"/>
      <point x="245" y="155"/>
      <point x="357" y="155"/>
      <point x="469" y="155" type="curve"/>
      <point x="469" y="276"/>
      <point x="469" y="155"/>
    </contour>
    <contour>
      <point x="302" y="110" type="curve"/>
      <point x="165" y="110"/>
      <point x="302" y="110"/>
      <point x="165" y="110" type="curve"/>
      <point x="165" y="0"/>
      <point x="165" y="110"/>
      <point x="165" y="0" type="curve"/>
      <point x="210" y="0"/>
      <point x="256" y="0"/>
      <point x="302" y="0" type="curve"/>
      <point x="302" y="110"/>
      <point x="302" y="0"/>
    </contour>
    <contour>
      <point x="302" y="0" type="curve"/>
      <point x="348" y="0"/>
      <point x="394" y="0"/>
      <point x="439" y="0" type="curve"/>
      <point x="439" y="110"/>
      <point x="439" y="0"/>
      <point x="439" y="110" type="curve"/>
      <point x="302" y="110"/>
      <point x="439" y="110"/>
      <point x="302" y="110" type="curve"/>
      <point x="302" y="0"/>
      <point x="302" y="110"/>
    </contour>
    <contour>
      <point x="459" y="722" type="curve"/>
      <point x="417" y="722"/>
      <point x="374" y="722"/>
      <point x="332" y="722" type="curve"/>
      <point x="332" y="612"/>
      <point x="332" y="722"/>
      <point x="332" y="612" type="curve"/>
      <point x="459" y="612"/>
      <point x="332" y="612"/>
      <point x="459" y="612" type="curve"/>
      <point x="459" y="722"/>
      <point x="459" y="612"/>
    </contour>
    <contour>
      <point x="135" y="722" type="curve"/>
      <point x="102" y="722"/>
      <point x="68" y="722"/>
      <point x="35" y="722" type="curve"/>
      <point x="34" y="612"/>
      <point x="35" y="722"/>
      <point x="34" y="612" type="curve"/>
      <point x="135" y="612"/>
      <point x="34" y="612"/>
      <point x="135" y="612" type="curve"/>
      <point x="135" y="722"/>
      <point x="135" y="612"/>
    </contour>
    <contour>
      <point x="155" y="612" type="curve"/>
      <point x="282" y="612"/>
      <point x="155" y="612"/>
      <point x="282" y="612" type="curve"/>
      <point x="282" y="722"/>
      <point x="282" y="612"/>
      <point x="282" y="722" type="curve"/>
      <point x="240" y="722"/>
      <point x="197" y="722"/>
      <point x="155" y="722" type="curve"/>
      <point x="155" y="612"/>
      <point x="155" y="722"/>
    </contour>
    <contour>
      <point x="479" y="612" type="curve"/>
      <point x="586" y="612"/>
      <point x="479" y="612"/>
      <point x="586" y="612" type="curve"/>
      <point x="586" y="722"/>
      <point x="586" y="612"/>
      <point x="586" y="722" type="curve"/>
      <point x="551" y="722"/>
      <point x="515" y="722"/>
      <point x="479" y="722" type="curve"/>
      <point x="479" y="612"/>
      <point x="479" y="722"/>
    </contour>
    <contour>
      <point x="53" y="722" type="curve"/>
      <point x="112" y="594"/>
      <point x="167" y="469"/>
      <point x="224" y="337" type="curve"/>
      <point x="369" y="337"/>
      <point x="202" y="337"/>
      <point x="347" y="337" type="curve"/>
      <point x="298" y="470"/>
      <point x="251" y="591"/>
      <point x="198" y="722" type="curve"/>
      <point x="53" y="722"/>
      <point x="198" y="722"/>
    </contour>
    <contour>
      <point x="416" y="722" type="curve"/>
      <point x="357" y="589"/>
      <point x="307" y="469"/>
      <point x="247" y="337" type="curve"/>
      <point x="392" y="337"/>
      <point x="235" y="337"/>
      <point x="380" y="337" type="curve"/>
      <point x="441" y="468"/>
      <point x="499" y="594"/>
      <point x="561" y="722" type="curve"/>
      <point x="416" y="722"/>
      <point x="561" y="722"/>
    </contour>
    <contour>
      <point x="380" y="0" type="curve"/>
      <point x="380" y="115"/>
      <point x="380" y="222"/>
      <point x="380" y="337" type="curve"/>
      <point x="224" y="337"/>
      <point x="380" y="337"/>
      <point x="224" y="337" type="curve"/>
      <point x="224" y="222"/>
      <point x="224" y="115"/>
      <point x="224" y="0" type="curve"/>
      <point x="380" y="0"/>
      <point x="224" y="0"/>
    </contour>
  </outline>
</glyph>
<glyph name="periodcentered" format="1">
  <advance width="249"/>
  <unicode hex="00B7"/>
  <outline>
    <contour>
      <point x="198" y="440" type="curve"/>
      <point x="198" y="488"/>
      <point x="167" y="512"/>
      <point x="123" y="512" type="curve"/>
      <point x="79" y="512"/>
      <point x="50" y="486"/>
      <point x="50" y="440" type="curve"/>
      <point x="198" y="440"/>
      <point x="50" y="440"/>
      <point x="198" y="440" type="curve"/>
      <point x="198" y="391"/>
      <point x="168" y="369"/>
      <point x="123" y="369" type="curve"/>
      <point x="79" y="369"/>
      <point x="50" y="393"/>
      <point x="50" y="440" type="curve"/>
      <point x="198" y="440"/>
      <point x="50" y="440"/>
    </contour>
  </outline>
</glyph>
<glyph name="Iacute" format="1">
  <advance width="354"/>
  <unicode hex="00CD"/>
  <outline>
    <contour>
      <point x="177" y="722" type="curve"/>
      <point x="131" y="722"/>
      <point x="85" y="722"/>
      <point x="39" y="722" type="curve"/>
      <point x="39" y="612"/>
      <point x="39" y="722"/>
      <point x="39" y="612" type="curve"/>
      <point x="177" y="612"/>
      <point x="39" y="612"/>
      <point x="177" y="612" type="curve"/>
      <point x="177" y="722"/>
      <point x="177" y="612"/>
    </contour>
    <contour>
      <point x="177" y="612" type="curve"/>
      <point x="314" y="612"/>
      <point x="177" y="612"/>
      <point x="314" y="612" type="curve"/>
      <point x="314" y="722"/>
      <point x="314" y="612"/>
      <point x="314" y="722" type="curve"/>
      <point x="268" y="722"/>
      <point x="222" y="722"/>
      <point x="177" y="722" type="curve"/>
      <point x="177" y="612"/>
      <point x="177" y="722"/>
    </contour>
    <contour>
      <point x="177" y="0" type="curve"/>
      <point x="222" y="0"/>
      <point x="268" y="0"/>
      <point x="314" y="0" type="curve"/>
      <point x="314" y="110"/>
      <point x="314" y="0"/>
      <point x="314" y="110" type="curve"/>
      <point x="177" y="110"/>
      <point x="314" y="110"/>
      <point x="177" y="110" type="curve"/>
      <point x="177" y="0"/>
      <point x="177" y="110"/>
    </contour>
    <contour>
      <point x="177" y="110" type="curve"/>
      <point x="39" y="110"/>
      <point x="177" y="110"/>
      <point x="39" y="110" type="curve"/>
      <point x="39" y="0"/>
      <point x="39" y="110"/>
      <point x="39" y="0" type="curve"/>
      <point x="85" y="0"/>
      <point x="131" y="0"/>
      <point x="177" y="0" type="curve"/>
      <point x="177" y="110"/>
      <point x="177" y="0"/>
    </contour>
    <contour>
      <point x="247" y="0" type="curve"/>
      <point x="247" y="241"/>
      <point x="247" y="481"/>
      <point x="247" y="722" type="curve"/>
      <point x="104" y="722"/>
      <point x="247" y="722"/>
      <point x="104" y="722" type="curve"/>
      <point x="104" y="481"/>
      <point x="104" y="241"/>
      <point x="104" y="0" type="curve"/>
      <point x="247" y="0"/>
      <point x="104" y="0"/>
    </contour>
    <contour>
      <point x="242" y="779" type="line"/>
      <point x="366" y="945" type="line"/>
      <point x="191" y="945" type="line"/>
      <point x="107" y="779" type="line"/>
    </contour>
  </outline>
</glyph>
<glyph name="Eth" format="1">
  <advance width="698"/>
  <unicode hex="00D0"/>
  <outline>
    <contour>
      <point x="201" y="110" type="curve"/>
      <point x="64" y="110"/>
      <point x="201" y="110"/>
      <point x="64" y="110" type="curve"/>
      <point x="64" y="0"/>
      <point x="64" y="110"/>
      <point x="64" y="0" type="curve"/>
      <point x="110" y="0"/>
      <point x="156" y="0"/>
      <point x="201" y="0" type="curve"/>
      <point x="201" y="110"/>
      <point x="201" y="0"/>
    </contour>
    <contour>
      <point x="201" y="722" type="curve"/>
      <point x="156" y="722"/>
      <point x="110" y="722"/>
      <point x="64" y="722" type="curve"/>
      <point x="64" y="612"/>
      <point x="64" y="722"/>
      <point x="64" y="612" type="curve"/>
      <point x="201" y="612"/>
      <point x="64" y="612"/>
      <point x="201" y="612" type="curve"/>
      <point x="201" y="722"/>
      <point x="201" y="612"/>
    </contour>
    <contour>
      <point x="128" y="722" type="curve"/>
      <point x="128" y="481"/>
      <point x="128" y="241"/>
      <point x="128" y="0" type="curve"/>
      <point x="271" y="0"/>
      <point x="128" y="0"/>
      <point x="271" y="0" type="curve"/>
      <point x="271" y="241"/>
      <point x="271" y="481"/>
      <point x="271" y="722" type="curve"/>
      <point x="128" y="722"/>
      <point x="271" y="722"/>
    </contour>
    <contour>
      <point x="201" y="0" type="curve"/>
      <point x="249" y="0"/>
      <point x="297" y="0"/>
      <point x="346" y="0" type="curve"/>
      <point x="555" y="0"/>
      <point x="650" y="134"/>
      <point x="650" y="354" type="curve"/>
      <point x="650" y="581"/>
      <point x="558" y="722"/>
      <point x="344" y="722" type="curve"/>
      <point x="297" y="722"/>
      <point x="249" y="722"/>
      <point x="201" y="722" type="curve"/>
      <point x="201" y="612"/>
      <point x="201" y="722"/>
      <point x="201" y="612" type="curve"/>
      <point x="247" y="612"/>
      <point x="292" y="612"/>
      <point x="338" y="612" type="curve"/>
      <point x="474" y="612"/>
      <point x="507" y="504"/>
      <point x="507" y="352" type="curve"/>
      <point x="507" y="212"/>
      <point x="480" y="110"/>
      <point x="359" y="110" type="curve"/>
      <point x="306" y="110"/>
      <point x="254" y="110"/>
      <point x="201" y="110" type="curve"/>
      <point x="201" y="0"/>
      <point x="201" y="110"/>
    </contour>
    <contour>
      <point x="89" y="292" type="curve"/>
      <point x="184" y="292"/>
      <point x="279" y="292"/>
      <point x="374" y="292" type="curve"/>
      <point x="374" y="413"/>
      <point x="374" y="292"/>
      <point x="374" y="413" type="curve"/>
      <point x="279" y="413"/>
      <point x="184" y="413"/>
      <point x="89" y="413" type="curve"/>
      <point x="89" y="292"/>
      <point x="89" y="413"/>
    </contour>
  </outline>
</glyph>
<glyph name="Oacute" format="1">
  <advance width="670"/>
  <unicode hex="00D3"/>
  <outline>
    <contour>
      <point x="190" y="360" type="curve"/>
      <point x="190" y="495"/>
      <point x="212" y="612"/>
      <point x="332" y="612" type="curve"/>
      <point x="447" y="612"/>
      <point x="480" y="498"/>
      <point x="480" y="363" type="curve"/>
      <point x="480" y="227"/>
      <point x="456" y="111"/>
      <point x="337" y="111" type="curve"/>
      <point x="220" y="111"/>
      <point x="190" y="224"/>
      <point x="190" y="360" type="curve"/>
      <point x="47" y="360"/>
      <point x="190" y="360"/>
      <point x="47" y="360" type="curve"/>
      <point x="47" y="151"/>
      <point x="140" y="-5"/>
      <point x="332" y="-5" type="curve"/>
      <point x="527" y="-5"/>
      <point x="623" y="152"/>
      <point x="623" y="363" type="curve"/>
      <point x="623" y="570"/>
      <point x="531" y="727"/>
      <point x="338" y="727" type="curve"/>
      <point x="144" y="727"/>
      <point x="47" y="570"/>
      <point x="47" y="360" type="curve"/>
      <point x="190" y="360"/>
      <point x="47" y="360"/>
    </contour>
    <contour>
      <point x="400" y="779" type="line"/>
      <point x="524" y="945" type="line"/>
      <point x="349" y="945" type="line"/>
      <point x="265" y="779" type="line"/>
    </contour>
  </outline>
</glyph>
<glyph name="multiply" format="1">
  <advance width="612"/>
  <unicode hex="00D7"/>
  <outline>
    <contour>
      <point x="128" y="42" type="line"/>
      <point x="565" y="499" type="line"/>
      <point x="484" y="580" type="line"/>
      <point x="47" y="123" type="line"/>
    </contour>
    <contour>
      <point x="565" y="120" type="line"/>
      <point x="128" y="577" type="line"/>
      <point x="47" y="496" type="line"/>
      <point x="484" y="39" type="line"/>
    </contour>
  </outline>
</glyph>
<glyph name="Oslash" format="1">
  <advance width="670"/>
  <unicode hex="00D8"/>
  <outline>
    <contour>
      <point x="211" y="-59" type="line"/>
      <point x="554" y="736" type="line"/>
      <point x="462" y="769" type="line"/>
      <point x="122" y="-15" type="line"/>
    </contour>
    <contour>
      <point x="190" y="360" type="curve"/>
      <point x="190" y="495"/>
      <point x="212" y="612"/>
      <point x="332" y="612" type="curve"/>
      <point x="447" y="612"/>
      <point x="480" y="498"/>
      <point x="480" y="363" type="curve"/>
      <point x="480" y="227"/>
      <point x="456" y="111"/>
      <point x="337" y="111" type="curve"/>
      <point x="220" y="111"/>
      <point x="190" y="224"/>
      <point x="190" y="360" type="curve"/>
      <point x="47" y="360"/>
      <point x="190" y="360"/>
      <point x="47" y="360" type="curve"/>
      <point x="47" y="151"/>
      <point x="140" y="-5"/>
      <point x="332" y="-5" type="curve"/>
      <point x="527" y="-5"/>
      <point x="623" y="152"/>
      <point x="623" y="363" type="curve"/>
      <point x="623" y="570"/>
      <point x="531" y="727"/>
      <point x="338" y="727" type="curve"/>
      <point x="144" y="727"/>
      <point x="47" y="570"/>
      <point x="47" y="360" type="curve"/>
      <point x="190" y="360"/>
      <point x="47" y="360"/>
    </contour>
  </outline>
</glyph>
<glyph name="Uacute" format="1">
  <advance width="723"/>
  <unicode hex="00DA"/>
  <outline>
    <contour>
      <point x="550" y="612" type="curve"/>
      <point x="685" y="612"/>
      <point x="550" y="612"/>
      <point x="685" y="612" type="curve"/>
      <point x="685" y="722"/>
      <point x="685" y="612"/>
      <point x="685" y="722" type="curve"/>
      <point x="640" y="722"/>
      <point x="595" y="722"/>
      <point x="550" y="722" type="curve"/>
      <point x="550" y="612"/>
      <point x="550" y="722"/>
    </contour>
    <contour>
      <point x="550" y="722" type="curve"/>
      <point x="505" y="722"/>
      <point x="460" y="722"/>
      <point x="416" y="722" type="curve"/>
      <point x="416" y="612"/>
      <point x="416" y="722"/>
      <point x="416" y="612" type="curve"/>
      <point x="550" y="612"/>
      <point x="416" y="612"/>
      <point x="550" y="612" type="curve"/>
      <point x="550" y="722"/>
      <point x="550" y="612"/>
    </contour>
    <contour>
      <point x="175" y="722" type="curve"/>
      <point x="130" y="722"/>
      <point x="85" y="722"/>
      <point x="41" y="722" type="curve"/>
      <point x="41" y="612"/>
      <point x="41" y="722"/>
      <point x="41" y="612" type="curve"/>
      <point x="175" y="612"/>
      <point x="41" y="612"/>
      <point x="175" y="612" type="curve"/>
      <point x="175" y="722"/>
      <point x="175" y="612"/>
    </contour>
    <contour>
      <point x="175" y="612" type="curve"/>
      <point x="309" y="612"/>
      <point x="175" y="612"/>
      <point x="309" y="612" type="curve"/>
      <point x="309" y="722"/>
      <point x="309" y="612"/>
      <point x="309" y="722" type="curve"/>
      <point x="265" y="722"/>
      <point x="220" y="722"/>
      <point x="175" y="722" type="curve"/>
      <point x="175" y="612"/>
      <point x="175" y="722"/>
    </contour>
    <contour>
      <point x="109" y="675" type="curve"/>
      <point x="109" y="541"/>
      <point x="108" y="407"/>
      <point x="109" y="273" type="curve"/>
      <point x="109" y="94"/>
      <point x="185" y="-5"/>
      <point x="358" y="-5" type="curve"/>
      <point x="536" y="-5"/>
      <point x="615" y="99"/>
      <point x="615" y="285" type="curve"/>
      <point x="615" y="415"/>
      <point x="615" y="545"/>
      <point x="615" y="675" type="curve"/>
      <point x="485" y="675"/>
      <point x="615" y="675"/>
      <point x="485" y="675" type="curve"/>
      <point x="485" y="538"/>
      <point x="485" y="407"/>
      <point x="485" y="270" type="curve"/>
      <point x="485" y="179"/>
      <point x="451" y="117"/>
      <point x="368" y="117" type="curve"/>
      <point x="268" y="117"/>
      <point x="239" y="186"/>
      <point x="239" y="295" type="curve"/>
      <point x="239" y="422"/>
      <point x="239" y="549"/>
      <point x="239" y="675" type="curve"/>
      <point x="109" y="675"/>
      <point x="239" y="675"/>
    </contour>
    <contour>
      <point x="429" y="779" type="line"/>
      <point x="553" y="945" type="line"/>
      <point x="378" y="945" type="line"/>
      <point x="294" y="779" type="line"/>
    </contour>
  </outline>
</glyph>
<glyph name="Thorn" format="1">
  <advance width="566"/>
  <unicode hex="00DE"/>
  <outline>
    <contour>
      <point x="195" y="722" type="curve"/>
      <point x="152" y="722"/>
      <point x="107" y="722"/>
      <point x="62" y="722" type="curve"/>
      <point x="62" y="612"/>
      <point x="62" y="722"/>
      <point x="62" y="612" type="curve"/>
      <point x="195" y="612"/>
      <point x="62" y="612"/>
      <point x="195" y="612" type="curve"/>
      <point x="195" y="722"/>
      <point x="195" y="612"/>
    </contour>
    <contour>
      <point x="195" y="110" type="curve"/>
      <point x="62" y="110"/>
      <point x="195" y="110"/>
      <point x="62" y="110" type="curve"/>
      <point x="62" y="0"/>
      <point x="62" y="110"/>
      <point x="62" y="0" type="curve"/>
      <point x="107" y="0"/>
      <point x="152" y="0"/>
      <point x="195" y="0" type="curve"/>
      <point x="195" y="110"/>
      <point x="195" y="0"/>
    </contour>
    <contour>
      <point x="195" y="0" type="curve"/>
      <point x="238" y="0"/>
      <point x="195" y="0"/>
      <point x="323" y="0" type="curve"/>
      <point x="323" y="110"/>
      <point x="323" y="0"/>
      <point x="323" y="110" type="curve"/>
      <point x="195" y="110"/>
      <point x="323" y="110"/>
      <point x="195" y="110" type="curve"/>
      <point x="195" y="0"/>
      <point x="195" y="110"/>
    </contour>
    <contour>
      <point x="174" y="210" type="curve"/>
      <point x="224" y="181"/>
      <point x="275" y="163"/>
      <point x="337" y="163" type="curve"/>
      <point x="459" y="165"/>
      <point x="538" y="247"/>
      <point x="538" y="381" type="curve"/>
      <point x="538" y="502"/>
      <point x="446" y="584"/>
      <point x="302" y="584" type="curve"/>
      <point x="267" y="584"/>
      <point x="232" y="584"/>
      <point x="198" y="584" type="curve"/>
      <point x="198" y="474"/>
      <point x="198" y="584"/>
      <point x="198" y="474" type="curve"/>
      <point x="226" y="474"/>
      <point x="254" y="474"/>
      <point x="283" y="474" type="curve"/>
      <point x="356" y="474"/>
      <point x="395" y="431"/>
      <point x="395" y="376" type="curve"/>
      <point x="395" y="317"/>
      <point x="375" y="269"/>
      <point x="319" y="269" type="curve"/>
      <point x="279" y="269"/>
      <point x="253" y="281"/>
      <point x="219" y="301" type="curve"/>
      <point x="175" y="213"/>
      <point x="219" y="301"/>
    </contour>
    <contour>
      <point x="266" y="0" type="curve"/>
      <point x="266" y="241"/>
      <point x="266" y="481"/>
      <point x="266" y="722" type="curve"/>
      <point x="123" y="722"/>
      <point x="266" y="722"/>
      <point x="123" y="722" type="curve"/>
      <point x="123" y="481"/>
      <point x="123" y="241"/>
      <point x="123" y="0" type="curve"/>
      <point x="266" y="0"/>
      <point x="123" y="0"/>
    </contour>
    <contour>
      <point x="195" y="612" type="curve"/>
      <point x="238" y="612"/>
      <point x="195" y="612"/>
      <point x="323" y="612" type="curve"/>
      <point x="323" y="722"/>
      <point x="323" y="612"/>
      <point x="323" y="722" type="curve"/>
      <point x="195" y="722"/>
      <point x="323" y="722"/>
      <point x="195" y="722" type="curve"/>
      <point x="195" y="612"/>
      <point x="195" y="722"/>
    </contour>
  </outline>
</glyph>
<glyph name="ae" format="1">
  <advance width="760"/>
  <unicode hex="00E6"/>
  <outline>
    <contour>
      <point x="66" y="461" type="curve"/>
      <point x="66" y="349"/>
      <point x="66" y="461"/>
      <point x="66" y="349" type="curve"/>
      <point x="178" y="349"/>
      <point x="66" y="349"/>
      <point x="178" y="349" type="curve"/>
      <point x="178" y="461"/>
      <point x="178" y="349"/>
      <point x="178" y="461" type="curve"/>
      <point x="66" y="461"/>
      <point x="178" y="461"/>
    </contour>
    <contour>
      <point x="444" y="283" type="curve"/>
      <point x="444" y="312"/>
      <point x="444" y="341"/>
      <point x="444" y="370" type="curve"/>
      <point x="444" y="488"/>
      <point x="365" y="533"/>
      <point x="250" y="533" type="curve"/>
      <point x="167" y="533"/>
      <point x="108" y="505"/>
      <point x="66" y="461" type="curve"/>
      <point x="119" y="368"/>
      <point x="66" y="461"/>
      <point x="119" y="368" type="curve"/>
      <point x="145" y="394"/>
      <point x="178" y="423"/>
      <point x="230" y="423" type="curve"/>
      <point x="276" y="423"/>
      <point x="301" y="392"/>
      <point x="301" y="337" type="curve"/>
      <point x="301" y="319"/>
      <point x="301" y="301"/>
      <point x="301" y="283" type="curve"/>
      <point x="444" y="283"/>
      <point x="301" y="283"/>
    </contour>
    <contour>
      <point x="369" y="331" type="curve"/>
      <point x="310" y="330"/>
      <point x="276" y="330"/>
      <point x="215" y="320" type="curve"/>
      <point x="106" y="303"/>
      <point x="38" y="261"/>
      <point x="38" y="165" type="curve"/>
      <point x="38" y="58"/>
      <point x="95" y="-5"/>
      <point x="201" y="-5" type="curve"/>
      <point x="306" y="-5"/>
      <point x="353" y="61"/>
      <point x="408" y="147" type="curve"/>
      <point x="336" y="208"/>
      <point x="408" y="147"/>
      <point x="336" y="208" type="curve"/>
      <point x="301" y="156"/>
      <point x="288" y="105"/>
      <point x="227" y="105" type="curve"/>
      <point x="190" y="105"/>
      <point x="176" y="126"/>
      <point x="176" y="163" type="curve"/>
      <point x="176" y="192"/>
      <point x="198" y="215"/>
      <point x="223" y="219" type="curve"/>
      <point x="279" y="228"/>
      <point x="318" y="227"/>
      <point x="374" y="227" type="curve"/>
      <point x="368" y="321"/>
      <point x="375" y="237"/>
    </contour>
    <contour>
      <point x="371" y="226" type="curve"/>
      <point x="469" y="226"/>
      <point x="567" y="226"/>
      <point x="665" y="226" type="curve"/>
      <point x="726" y="226"/>
      <point x="665" y="226"/>
      <point x="726" y="226" type="curve"/>
      <point x="726" y="274"/>
      <point x="726" y="226"/>
      <point x="726" y="274" type="curve"/>
      <point x="726" y="280"/>
      <point x="726" y="286"/>
      <point x="726" y="292" type="curve"/>
      <point x="726" y="442"/>
      <point x="659" y="538"/>
      <point x="521" y="538" type="curve"/>
      <point x="373" y="538"/>
      <point x="299" y="438"/>
      <point x="299" y="278" type="curve"/>
      <point x="299" y="106"/>
      <point x="378" y="-5"/>
      <point x="537" y="-5" type="curve"/>
      <point x="607" y="-5"/>
      <point x="651" y="22"/>
      <point x="704" y="73" type="curve"/>
      <point x="618" y="151"/>
      <point x="704" y="73"/>
      <point x="618" y="151" type="curve"/>
      <point x="594" y="125"/>
      <point x="572" y="111"/>
      <point x="537" y="111" type="curve"/>
      <point x="455" y="111"/>
      <point x="440" y="184"/>
      <point x="440" y="278" type="curve"/>
      <point x="440" y="358"/>
      <point x="446" y="423"/>
      <point x="515" y="423" type="curve"/>
      <point x="574" y="423"/>
      <point x="590" y="372"/>
      <point x="590" y="303" type="curve"/>
      <point x="590" y="293"/>
      <point x="590" y="284"/>
      <point x="590" y="274" type="curve"/>
      <point x="602" y="286"/>
      <point x="614" y="296"/>
      <point x="626" y="308" type="curve"/>
      <point x="637" y="319"/>
      <point x="654" y="318"/>
      <point x="665" y="330" type="curve"/>
      <point x="567" y="330"/>
      <point x="469" y="330"/>
      <point x="371" y="330" type="curve"/>
      <point x="371" y="220"/>
      <point x="371" y="336"/>
    </contour>
  </outline>
</glyph>
<glyph name="iacute" format="1">
  <advance width="318"/>
  <unicode hex="00ED"/>
  <outline>
    <contour>
      <point x="164" y="110" type="curve"/>
      <point x="27" y="110"/>
      <point x="164" y="110"/>
      <point x="27" y="110" type="curve"/>
      <point x="26" y="0"/>
      <point x="27" y="110"/>
      <point x="26" y="0" type="curve"/>
      <point x="72" y="0"/>
      <point x="118" y="0"/>
      <point x="164" y="0" type="curve"/>
      <point x="164" y="110"/>
      <point x="164" y="0"/>
    </contour>
    <contour>
      <point x="164" y="0" type="curve"/>
      <point x="207" y="0"/>
      <point x="250" y="0"/>
      <point x="294" y="0" type="curve"/>
      <point x="294" y="110"/>
      <point x="294" y="0"/>
      <point x="294" y="110" type="curve"/>
      <point x="164" y="110"/>
      <point x="294" y="110"/>
      <point x="164" y="110" type="curve"/>
      <point x="164" y="0"/>
      <point x="164" y="110"/>
    </contour>
    <contour>
      <point x="164" y="533" type="curve"/>
      <point x="118" y="533"/>
      <point x="72" y="533"/>
      <point x="27" y="533" type="curve"/>
      <point x="26" y="423"/>
      <point x="27" y="533"/>
      <point x="26" y="423" type="curve"/>
      <point x="164" y="423"/>
      <point x="26" y="423"/>
      <point x="164" y="423" type="curve"/>
      <point x="164" y="533"/>
      <point x="164" y="423"/>
    </contour>
    <contour>
      <point x="239" y="0" type="curve"/>
      <point x="239" y="178"/>
      <point x="239" y="355"/>
      <point x="239" y="533" type="curve"/>
      <point x="89" y="533"/>
      <point x="239" y="533"/>
      <point x="89" y="533" type="curve"/>
      <point x="89" y="355"/>
      <point x="89" y="178"/>
      <point x="89" y="0" type="curve"/>
      <point x="239" y="0"/>
      <point x="89" y="0"/>
    </contour>
    <contour>
      <point x="231" y="609" type="line"/>
      <point x="355" y="775" type="line"/>
      <point x="180" y="775" type="line"/>
      <point x="96" y="609" type="line"/>
    </contour>
  </outline>
</glyph>
<glyph name="ocircumflex" format="1">
  <advance width="540"/>
  <unicode hex="00F4"/>
  <outline>
    <contour>
      <point x="170" y="265" type="line"/>
      <point x="170" y="345"/>
      <point x="188" y="423"/>
      <point x="264" y="423" type="curve"/>
      <point x="340" y="423"/>
      <point x="360" y="347"/>
      <point x="360" y="265" type="curve"/>
      <point x="360" y="180"/>
      <point x="344" y="110"/>
      <point x="273" y="110" type="curve"/>
      <point x="188" y="111"/>
      <point x="170" y="179"/>
      <point x="170" y="265" type="curve"/>
      <point x="37" y="265" type="line"/>
      <point x="37" y="105"/>
      <point x="115" y="-5"/>
      <point x="267" y="-5" type="curve"/>
      <point x="421" y="-5"/>
      <point x="503" y="103"/>
      <point x="503" y="265" type="curve"/>
      <point x="503" y="427"/>
      <point x="424" y="538"/>
      <point x="271" y="538" type="curve"/>
      <point x="116" y="538"/>
      <point x="37" y="427"/>
      <point x="37" y="265" type="curve"/>
    </contour>
    <contour>
      <point x="205" y="610" type="line"/>
      <point x="329" y="776" type="line"/>
      <point x="154" y="776" type="line"/>
      <point x="70" y="610" type="line"/>
    </contour>
    <contour>
      <point x="468" y="610" type="line"/>
      <point x="384" y="776" type="line"/>
      <point x="209" y="776" type="line"/>
      <point x="333" y="610" type="line"/>
    </contour>
  </outline>
</glyph>
<glyph name="otilde" format="1">
  <advance width="540"/>
  <unicode hex="00F5"/>
  <outline>
    <contour>
      <point x="170" y="265" type="line"/>
      <point x="170" y="345"/>
      <point x="188" y="423"/>
      <point x="264" y="423" type="curve"/>
      <point x="340" y="423"/>
      <point x="360" y="347"/>
      <point x="360" y="265" type="curve"/>
      <point x="360" y="180"/>
      <point x="344" y="110"/>
      <point x="273" y="110" type="curve"/>
      <point x="188" y="111"/>
      <point x="170" y="179"/>
      <point x="170" y="265" type="curve"/>
      <point x="37" y="265" type="line"/>
      <point x="37" y="105"/>
      <point x="115" y="-5"/>
      <point x="267" y="-5" type="curve"/>
      <point x="421" y="-5"/>
      <point x="503" y="103"/>
      <point x="503" y="265" type="curve"/>
      <point x="503" y="427"/>
      <point x="424" y="538"/>
      <point x="271" y="538" type="curve"/>
      <point x="116" y="538"/>
      <point x="37" y="427"/>
      <point x="37" y="265" type="curve"/>
    </contour>
    <contour>
      <point x="365" y="802" type="curve"/>
      <point x="347" y="767"/>
      <point x="335" y="761"/>
      <point x="321" y="761" type="curve"/>
      <point x="296" y="761"/>
      <point x="284" y="767"/>
      <point x="266" y="781" type="curve" smooth="yes"/>
      <point x="240" y="801"/>
      <point x="227" y="809"/>
      <point x="198" y="809" type="curve"/>
      <point x="129" y="809"/>
      <point x="93" y="740"/>
      <point x="72" y="676" type="curve"/>
      <point x="177" y="615"/>
      <point x="72" y="677"/>
      <point x="177" y="615" type="curve"/>
      <point x="197" y="655"/>
      <point x="213" y="661"/>
      <point x="231" y="661" type="curve"/>
      <point x="251" y="661"/>
      <point x="261" y="655"/>
      <point x="275" y="643" type="curve" smooth="yes"/>
      <point x="305" y="619"/>
      <point x="321" y="608"/>
      <point x="356" y="608" type="curve"/>
      <point x="425" y="608"/>
      <point x="451" y="673"/>
      <point x="478" y="743" type="curve"/>
      <point x="365" y="802"/>
      <point x="478" y="742"/>
    </contour>
  </outline>
</glyph>
<glyph name="odieresis" format="1">
  <advance width="540"/>
  <unicode hex="00F6"/>
  <outline>
    <contour>
      <point x="170" y="265" type="line"/>
      <point x="170" y="345"/>
      <point x="188" y="423"/>
      <point x="264" y="423" type="curve"/>
      <point x="340" y="423"/>
      <point x="360" y="347"/>
      <point x="360" y="265" type="curve"/>
      <point x="360" y="180"/>
      <point x="344" y="110"/>
      <point x="273" y="110" type="curve"/>
      <point x="188" y="111"/>
      <point x="170" y="179"/>
      <point x="170" y="265" type="curve"/>
      <point x="37" y="265" type="line"/>
      <point x="37" y="105"/>
      <point x="115" y="-5"/>
      <point x="267" y="-5" type="curve"/>
      <point x="421" y="-5"/>
      <point x="503" y="103"/>
      <point x="503" y="265" type="curve"/>
      <point x="503" y="427"/>
      <point x="424" y="538"/>
      <point x="271" y="538" type="curve"/>
      <point x="116" y="538"/>
      <point x="37" y="427"/>
      <point x="37" y="265" type="curve"/>
    </contour>
    <contour>
      <point x="244" y="675" type="curve"/>
      <point x="244" y="723"/>
      <point x="212" y="747"/>
      <point x="169" y="747" type="curve"/>
      <point x="125" y="747"/>
      <point x="96" y="721"/>
      <point x="96" y="675" type="curve"/>
      <point x="244" y="675"/>
      <point x="96" y="675"/>
      <point x="244" y="675" type="curve"/>
      <point x="244" y="626"/>
      <point x="213" y="604"/>
      <point x="169" y="604" type="curve"/>
      <point x="124" y="604"/>
      <point x="96" y="628"/>
      <point x="96" y="675" type="curve"/>
      <point x="244" y="675"/>
      <point x="96" y="675"/>
    </contour>
    <contour>
      <point x="444" y="675" type="curve"/>
      <point x="444" y="723"/>
      <point x="412" y="747"/>
      <point x="369" y="747" type="curve"/>
      <point x="325" y="747"/>
      <point x="296" y="721"/>
      <point x="296" y="675" type="curve"/>
      <point x="444" y="675"/>
      <point x="296" y="675"/>
      <point x="444" y="675" type="curve"/>
      <point x="444" y="626"/>
      <point x="413" y="604"/>
      <point x="369" y="604" type="curve"/>
      <point x="324" y="604"/>
      <point x="296" y="628"/>
      <point x="296" y="675" type="curve"/>
      <point x="444" y="675"/>
      <point x="296" y="675"/>
    </contour>
  </outline>
</glyph>
<glyph name="ugrave" format="1">
  <advance width="600"/>
  <unicode hex="00F9"/>
  <outline>
    <contour>
      <point x="432" y="533" type="curve"/>
      <point x="386" y="533"/>
      <point x="340" y="533"/>
      <point x="294" y="533" type="curve"/>
      <point x="294" y="423"/>
      <point x="294" y="533"/>
      <point x="294" y="423" type="curve"/>
      <point x="432" y="423"/>
      <point x="294" y="423"/>
      <point x="432" y="423" type="curve"/>
      <point x="432" y="533"/>
      <point x="432" y="423"/>
    </contour>
    <contour>
      <point x="158" y="533" type="curve"/>
      <point x="112" y="533"/>
      <point x="65" y="533"/>
      <point x="20" y="533" type="curve"/>
      <point x="20" y="423"/>
      <point x="20" y="533"/>
      <point x="20" y="423" type="curve"/>
      <point x="158" y="423"/>
      <point x="20" y="423"/>
      <point x="158" y="423" type="curve"/>
      <point x="158" y="533"/>
      <point x="158" y="423"/>
    </contour>
    <contour>
      <point x="432" y="0" type="curve"/>
      <point x="475" y="0"/>
      <point x="518" y="0"/>
      <point x="561" y="0" type="curve"/>
      <point x="561" y="110"/>
      <point x="561" y="0"/>
      <point x="561" y="110" type="curve"/>
      <point x="432" y="110"/>
      <point x="561" y="110"/>
      <point x="432" y="110" type="curve"/>
      <point x="432" y="0"/>
      <point x="432" y="110"/>
    </contour>
    <contour>
      <point x="503" y="0" type="curve"/>
      <point x="503" y="178"/>
      <point x="503" y="355"/>
      <point x="503" y="533" type="curve"/>
      <point x="360" y="533"/>
      <point x="503" y="533"/>
      <point x="360" y="533" type="curve"/>
      <point x="360" y="355"/>
      <point x="360" y="178"/>
      <point x="360" y="0" type="curve"/>
      <point x="503" y="0"/>
      <point x="360" y="0"/>
    </contour>
    <contour>
      <point x="388" y="228" type="curve"/>
      <point x="366" y="178"/>
      <point x="341" y="111"/>
      <point x="288" y="111" type="curve"/>
      <point x="235" y="111"/>
      <point x="229" y="159"/>
      <point x="229" y="219" type="curve"/>
      <point x="229" y="324"/>
      <point x="229" y="428"/>
      <point x="229" y="533" type="curve"/>
      <point x="86" y="533"/>
      <point x="229" y="533"/>
      <point x="86" y="533" type="curve"/>
      <point x="86" y="426"/>
      <point x="86" y="320"/>
      <point x="86" y="214" type="curve"/>
      <point x="86" y="83"/>
      <point x="132" y="-5"/>
      <point x="266" y="-5" type="curve"/>
      <point x="354" y="-5"/>
      <point x="406" y="80"/>
      <point x="438" y="181" type="curve"/>
      <point x="387" y="227"/>
      <point x="439" y="182"/>
    </contour>
    <contour>
      <point x="340" y="611" type="line"/>
      <point x="256" y="777" type="line"/>
      <point x="81" y="777" type="line"/>
      <point x="205" y="611" type="line"/>
    </contour>
  </outline>
</glyph>
<glyph name="iogonek" format="1">
  <advance width="314"/>
  <unicode hex="012F"/>
  <outline>
    <contour>
      <point x="164" y="110" type="curve"/>
      <point x="27" y="110"/>
      <point x="164" y="110"/>
      <point x="27" y="110" type="curve"/>
      <point x="26" y="0"/>
      <point x="27" y="110"/>
      <point x="26" y="0" type="curve"/>
      <point x="72" y="0"/>
      <point x="118" y="0"/>
      <point x="164" y="0" type="curve"/>
      <point x="164" y="110"/>
      <point x="164" y="0"/>
    </contour>
    <contour>
      <point x="164" y="0" type="curve"/>
      <point x="207" y="0"/>
      <point x="250" y="0"/>
      <point x="294" y="0" type="curve"/>
      <point x="294" y="110"/>
      <point x="294" y="0"/>
      <point x="294" y="110" type="curve"/>
      <point x="164" y="110"/>
      <point x="294" y="110"/>
      <point x="164" y="110" type="curve"/>
      <point x="164" y="0"/>
      <point x="164" y="110"/>
    </contour>
    <contour>
      <point x="164" y="533" type="curve"/>
      <point x="118" y="533"/>
      <point x="72" y="533"/>
      <point x="27" y="533" type="curve"/>
      <point x="26" y="423"/>
      <point x="27" y="533"/>
      <point x="26" y="423" type="curve"/>
      <point x="164" y="423"/>
      <point x="26" y="423"/>
      <point x="164" y="423" type="curve"/>
      <point x="164" y="533"/>
      <point x="164" y="423"/>
    </contour>
    <contour>
      <point x="239" y="0" type="curve"/>
      <point x="239" y="178"/>
      <point x="239" y="355"/>
      <point x="239" y="533" type="curve"/>
      <point x="89" y="533"/>
      <point x="239" y="533"/>
      <point x="89" y="533" type="curve"/>
      <point x="89" y="355"/>
      <point x="89" y="178"/>
      <point x="89" y="0" type="curve"/>
      <point x="239" y="0"/>
      <point x="89" y="0"/>
    </contour>
    <contour>
      <point x="234" y="678" type="curve"/>
      <point x="234" y="726"/>
      <point x="202" y="750"/>
      <point x="159" y="750" type="curve"/>
      <point x="115" y="750"/>
      <point x="86" y="724"/>
      <point x="86" y="678" type="curve"/>
      <point x="234" y="678"/>
      <point x="86" y="678"/>
      <point x="234" y="678" type="curve"/>
      <point x="234" y="629"/>
      <point x="203" y="607"/>
      <point x="159" y="607" type="curve"/>
      <point x="114" y="607"/>
      <point x="86" y="631"/>
      <point x="86" y="678" type="curve"/>
      <point x="234" y="678"/>
      <point x="86" y="678"/>
    </contour>
    <contour>
      <point x="190" y="80" type="curve"/>
      <point x="128" y="45"/>
      <point x="73" y="18"/>
      <point x="73" y="-52" type="curve"/>
      <point x="73" y="-128"/>
      <point x="117" y="-180"/>
      <point x="193" y="-180" type="curve"/>
      <point x="230" y="-180"/>
      <point x="255" y="-169"/>
      <point x="285" y="-147" type="curve"/>
      <point x="220" y="-59"/>
      <point x="285" y="-147"/>
      <point x="220" y="-59" type="curve"/>
      <point x="214" y="-63"/>
      <point x="207" y="-70"/>
      <point x="200" y="-70" type="curve"/>
      <point x="191" y="-70"/>
      <point x="185" y="-62"/>
      <point x="185" y="-52" type="curve"/>
      <point x="185" y="-24"/>
      <point x="218" y="-13"/>
      <point x="242" y="3" type="curve"/>
      <point x="190" y="80"/>
      <point x="242" y="3"/>
    </contour>
  </outline>
</glyph>
<glyph name="nacute" format="1">
  <advance width="583"/>
  <unicode hex="0144"/>
  <outline>
    <contour>
      <point x="206" y="263" type="curve"/>
      <point x="220" y="343"/>
      <point x="251" y="423"/>
      <point x="307" y="423" type="curve"/>
      <point x="363" y="423"/>
      <point x="370" y="372"/>
      <point x="370" y="308" type="curve"/>
      <point x="370" y="205"/>
      <point x="370" y="103"/>
      <point x="370" y="0" type="curve"/>
      <point x="513" y="0"/>
      <point x="370" y="0"/>
      <point x="513" y="0" type="curve"/>
      <point x="513" y="106"/>
      <point x="513" y="213"/>
      <point x="513" y="319" type="curve"/>
      <point x="513" y="446"/>
      <point x="482" y="538"/>
      <point x="360" y="538" type="curve"/>
      <point x="265" y="538"/>
      <point x="192" y="460"/>
      <point x="166" y="326" type="curve"/>
      <point x="207" y="264"/>
      <point x="165" y="325"/>
    </contour>
    <contour>
      <point x="441" y="0" type="curve"/>
      <point x="486" y="0"/>
      <point x="532" y="0"/>
      <point x="578" y="0" type="curve"/>
      <point x="578" y="110"/>
      <point x="578" y="0"/>
      <point x="578" y="110" type="curve"/>
      <point x="441" y="110"/>
      <point x="578" y="110"/>
      <point x="441" y="110" type="curve"/>
      <point x="441" y="0"/>
      <point x="441" y="110"/>
    </contour>
    <contour>
      <point x="163" y="110" type="curve"/>
      <point x="25" y="110"/>
      <point x="163" y="110"/>
      <point x="25" y="110" type="curve"/>
      <point x="25" y="0"/>
      <point x="25" y="110"/>
      <point x="25" y="0" type="curve"/>
      <point x="71" y="0"/>
      <point x="117" y="0"/>
      <point x="163" y="0" type="curve"/>
      <point x="163" y="110"/>
      <point x="163" y="0"/>
    </contour>
    <contour>
      <point x="163" y="0" type="curve"/>
      <point x="206" y="0"/>
      <point x="163" y="0"/>
      <point x="292" y="0" type="curve"/>
      <point x="292" y="110"/>
      <point x="292" y="0"/>
      <point x="292" y="110" type="curve"/>
      <point x="163" y="110"/>
      <point x="292" y="110"/>
      <point x="163" y="110" type="curve"/>
      <point x="163" y="0"/>
      <point x="163" y="110"/>
    </contour>
    <contour>
      <point x="234" y="0" type="curve"/>
      <point x="234" y="178"/>
      <point x="234" y="355"/>
      <point x="234" y="533" type="curve"/>
      <point x="91" y="533"/>
      <point x="234" y="533"/>
      <point x="91" y="533" type="curve"/>
      <point x="91" y="355"/>
      <point x="91" y="178"/>
      <point x="91" y="0" type="curve"/>
      <point x="234" y="0"/>
      <point x="91" y="0"/>
    </contour>
    <contour>
      <point x="163" y="533" type="curve"/>
      <point x="117" y="533"/>
      <point x="71" y="533"/>
      <point x="25" y="533" type="curve"/>
      <point x="25" y="423"/>
      <point x="25" y="533"/>
      <point x="25" y="423" type="curve"/>
      <point x="163" y="423"/>
      <point x="25" y="423"/>
      <point x="163" y="423" type="curve"/>
      <point x="163" y="533"/>
      <point x="163" y="423"/>
    </contour>
    <contour>
      <point x="362" y="609" type="line"/>
      <point x="486" y="775" type="line"/>
      <point x="311" y="775" type="line"/>
      <point x="227" y="609" type="line"/>
    </contour>
  </outline>
</glyph>
<glyph name="rcommaaccent" format="1">
  <advance width="389"/>
  <unicode hex="0157"/>
  <outline>
    <contour>
      <point x="185" y="0" type="curve"/>
      <point x="228" y="0"/>
      <point x="271" y="0"/>
      <point x="315" y="0" type="curve"/>
      <point x="315" y="110"/>
      <point x="315" y="0"/>
      <point x="315" y="110" type="curve"/>
      <point x="185" y="110"/>
      <point x="315" y="110"/>
      <point x="185" y="110" type="curve"/>
      <point x="185" y="0"/>
      <point x="185" y="110"/>
    </contour>
    <contour>
      <point x="185" y="110" type="curve"/>
      <point x="48" y="110"/>
      <point x="185" y="110"/>
      <point x="48" y="110" type="curve"/>
      <point x="47" y="0"/>
      <point x="48" y="110"/>
      <point x="47" y="0" type="curve"/>
      <point x="93" y="0"/>
      <point x="139" y="0"/>
      <point x="185" y="0" type="curve"/>
      <point x="185" y="110"/>
      <point x="185" y="0"/>
    </contour>
    <contour>
      <point x="184" y="533" type="curve"/>
      <point x="138" y="533"/>
      <point x="92" y="533"/>
      <point x="47" y="533" type="curve"/>
      <point x="47" y="423"/>
      <point x="47" y="533"/>
      <point x="47" y="423" type="curve"/>
      <point x="184" y="423"/>
      <point x="47" y="423"/>
      <point x="184" y="423" type="curve"/>
      <point x="184" y="533"/>
      <point x="184" y="423"/>
    </contour>
    <contour>
      <point x="256" y="0" type="curve"/>
      <point x="256" y="178"/>
      <point x="256" y="355"/>
      <point x="256" y="533" type="curve"/>
      <point x="113" y="533"/>
      <point x="256" y="533"/>
      <point x="113" y="533" type="curve"/>
      <point x="113" y="355"/>
      <point x="113" y="178"/>
      <point x="113" y="0" type="curve"/>
      <point x="256" y="0"/>
      <point x="113" y="0"/>
    </contour>
    <contour>
      <point x="226" y="284" type="curve"/>
      <point x="257" y="399"/>
      <point x="309" y="423"/>
      <point x="372" y="423" type="curve"/>
      <point x="372" y="538"/>
      <point x="372" y="423"/>
      <point x="372" y="538" type="curve"/>
      <point x="278" y="538"/>
      <point x="211" y="447"/>
      <point x="175" y="336" type="curve"/>
      <point x="224" y="282"/>
      <point x="178" y="338"/>
    </contour>
    <contour>
      <point x="111" y="-390" type="line"/>
      <point x="208" y="-390"/>
      <point x="272" y="-320"/>
      <point x="272" y="-213" type="curve"/>
      <point x="272" y="-124"/>
      <point x="238" y="-78"/>
      <point x="191" y="-78" type="curve"/>
      <point x="148" y="-78"/>
      <point x="118" y="-103"/>
      <point x="118" y="-150" type="curve"/>
      <point x="118" y="-188"/>
      <point x="139" y="-218"/>
      <point x="178" y="-218" type="curve"/>
      <point x="178" y="-245"/>
      <point x="176" y="-300"/>
      <point x="111" y="-312" type="curve"/>
    </contour>
  </outline>
</glyph>
<glyph name="rcaron" format="1">
  <advance width="398"/>
  <unicode hex="0159"/>
  <outline>
    <contour>
      <point x="184" y="0" type="curve"/>
      <point x="227" y="0"/>
      <point x="270" y="0"/>
      <point x="314" y="0" type="curve"/>
      <point x="314" y="110"/>
      <point x="314" y="0"/>
      <point x="314" y="110" type="curve"/>
      <point x="184" y="110"/>
      <point x="314" y="110"/>
      <point x="184" y="110" type="curve"/>
      <point x="184" y="0"/>
      <point x="184" y="110"/>
    </contour>
    <contour>
      <point x="184" y="110" type="curve"/>
      <point x="47" y="110"/>
      <point x="184" y="110"/>
      <point x="47" y="110" type="curve"/>
      <point x="46" y="0"/>
      <point x="47" y="110"/>
      <point x="46" y="0" type="curve"/>
      <point x="92" y="0"/>
      <point x="138" y="0"/>
      <point x="184" y="0" type="curve"/>
      <point x="184" y="110"/>
      <point x="184" y="0"/>
    </contour>
    <contour>
      <point x="183" y="533" type="curve"/>
      <point x="137" y="533"/>
      <point x="91" y="533"/>
      <point x="46" y="533" type="curve"/>
      <point x="46" y="423"/>
      <point x="46" y="533"/>
      <point x="46" y="423" type="curve"/>
      <point x="183" y="423"/>
      <point x="46" y="423"/>
      <point x="183" y="423" type="curve"/>
      <point x="183" y="533"/>
      <point x="183" y="423"/>
    </contour>
    <contour>
      <point x="255" y="0" type="curve"/>
      <point x="255" y="178"/>
      <point x="255" y="355"/>
      <point x="255" y="533" type="curve"/>
      <point x="112" y="533"/>
      <point x="255" y="533"/>
      <point x="112" y="533" type="curve"/>
      <point x="112" y="355"/>
      <point x="112" y="178"/>
      <point x="112" y="0" type="curve"/>
      <point x="255" y="0"/>
      <point x="112" y="0"/>
    </contour>
    <contour>
      <point x="225" y="284" type="curve"/>
      <point x="256" y="399"/>
      <point x="308" y="423"/>
      <point x="371" y="423" type="curve"/>
      <point x="371" y="538"/>
      <point x="371" y="423"/>
      <point x="371" y="538" type="curve"/>
      <point x="277" y="538"/>
      <point x="210" y="447"/>
      <point x="174" y="336" type="curve"/>
      <point x="222" y="282"/>
      <point x="177" y="338"/>
    </contour>
    <contour>
      <point x="259" y="777" type="line"/>
      <point x="135" y="611" type="line"/>
      <point x="310" y="611" type="line"/>
      <point x="394" y="777" type="line"/>
    </contour>
    <contour>
      <point x="-4" y="777" type="line"/>
      <point x="80" y="611" type="line"/>
      <point x="255" y="611" type="line"/>
      <point x="131" y="777" type="line"/>
    </contour>
  </outline>
</glyph>
<glyph name="Tcaron" format="1">
  <advance width="507"/>
  <unicode hex="0164"/>
  <outline>
    <contour>
      <point x="21" y="666" type="curve"/>
      <point x="21" y="546"/>
      <point x="21" y="666"/>
      <point x="21" y="546" type="curve"/>
      <point x="132" y="546"/>
      <point x="21" y="546"/>
      <point x="132" y="546" type="curve"/>
      <point x="132" y="666"/>
      <point x="132" y="546"/>
      <point x="132" y="666" type="curve"/>
      <point x="21" y="666"/>
      <point x="132" y="666"/>
    </contour>
    <contour>
      <point x="374" y="666" type="curve"/>
      <point x="374" y="546"/>
      <point x="374" y="666"/>
      <point x="374" y="546" type="curve"/>
      <point x="486" y="546"/>
      <point x="374" y="546"/>
      <point x="486" y="546" type="curve"/>
      <point x="486" y="666"/>
      <point x="486" y="546"/>
      <point x="486" y="666" type="curve"/>
      <point x="374" y="666"/>
      <point x="486" y="666"/>
    </contour>
    <contour>
      <point x="252" y="0" type="curve"/>
      <point x="298" y="0"/>
      <point x="344" y="0"/>
      <point x="390" y="0" type="curve"/>
      <point x="390" y="110"/>
      <point x="390" y="0"/>
      <point x="390" y="110" type="curve"/>
      <point x="252" y="110"/>
      <point x="390" y="110"/>
      <point x="252" y="110" type="curve"/>
      <point x="252" y="0"/>
      <point x="252" y="110"/>
    </contour>
    <contour>
      <point x="252" y="110" type="curve"/>
      <point x="115" y="110"/>
      <point x="252" y="110"/>
      <point x="115" y="110" type="curve"/>
      <point x="115" y="0"/>
      <point x="115" y="110"/>
      <point x="115" y="0" type="curve"/>
      <point x="161" y="0"/>
      <point x="207" y="0"/>
      <point x="252" y="0" type="curve"/>
      <point x="252" y="110"/>
      <point x="252" y="0"/>
    </contour>
    <contour>
      <point x="325" y="0" type="curve"/>
      <point x="325" y="237"/>
      <point x="325" y="473"/>
      <point x="325" y="710" type="curve"/>
      <point x="182" y="710"/>
      <point x="325" y="710"/>
      <point x="182" y="710" type="curve"/>
      <point x="181" y="473"/>
      <point x="182" y="237"/>
      <point x="182" y="0" type="curve"/>
      <point x="325" y="0"/>
      <point x="182" y="0"/>
    </contour>
    <contour>
      <point x="21" y="605" type="curve"/>
      <point x="175" y="605"/>
      <point x="331" y="605"/>
      <point x="486" y="605" type="curve"/>
      <point x="486" y="727"/>
      <point x="486" y="600"/>
      <point x="486" y="722" type="curve"/>
      <point x="331" y="722"/>
      <point x="175" y="722"/>
      <point x="21" y="722" type="curve"/>
      <point x="21" y="600"/>
      <point x="21" y="727"/>
    </contour>
    <contour>
      <point x="317" y="947" type="line"/>
      <point x="193" y="781" type="line"/>
      <point x="368" y="781" type="line"/>
      <point x="452" y="947" type="line"/>
    </contour>
    <contour>
      <point x="54" y="947" type="line"/>
      <point x="138" y="781" type="line"/>
      <point x="313" y="781" type="line"/>
      <point x="189" y="947" type="line"/>
    </contour>
  </outline>
</glyph>
<glyph name="caron" format="1">
  <advance width="513"/>
  <unicode hex="02C7"/>
  <outline>
    <contour>
      <point x="245" y="590" type="move" name="_top"/>
    </contour>
    <contour>
      <point x="309" y="757" type="line"/>
      <point x="185" y="591" type="line"/>
      <point x="360" y="591" type="line"/>
      <point x="444" y="757" type="line"/>
    </contour>
    <contour>
      <point x="46" y="757" type="line"/>
      <point x="130" y="591" type="line"/>
      <point x="305" y="591" type="line"/>
      <point x="181" y="757" type="line"/>
    </contour>
  </outline>
</glyph>
<glyph name="ogonek" format="1">
  <advance width="239"/>
  <unicode hex="02DB"/>
  <outline>
    <contour>
      <point x="146" y="16" type="move" name="_bottom"/>
    </contour>
    <contour>
      <point x="108" y="92" type="curve"/>
      <point x="46" y="57"/>
      <point x="-9" y="30"/>
      <point x="-9" y="-40" type="curve"/>
      <point x="-9" y="-116"/>
      <point x="35" y="-168"/>
      <point x="111" y="-168" type="curve"/>
      <point x="148" y="-168"/>
      <point x="173" y="-157"/>
      <point x="203" y="-135" type="curve"/>
      <point x="138" y="-47"/>
      <point x="203" y="-135"/>
      <point x="138" y="-47" type="curve"/>
      <point x="132" y="-51"/>
      <point x="125" y="-58"/>
      <point x="118" y="-58" type="curve"/>
      <point x="109" y="-58"/>
      <point x="103" y="-50"/>
      <point x="103" y="-40" type="curve"/>
      <point x="103" y="-12"/>
      <point x="136" y="-1"/>
      <point x="160" y="15" type="curve"/>
      <point x="108" y="92"/>
      <point x="160" y="15"/>
    </contour>
  </outline>
</glyph>
<glyph name="dvAnusvara" format="1">
  <advance width="0"/>
  <unicode hex="0902"/>
  <outline>
    <contour>
      <point x="-55" y="775" type="move" name="_abvm.e"/>
    </contour>
    <contour>
      <point x="-55" y="933" type="curve"/>
      <point x="-55" y="973"/>
      <point x="-79" y="1000"/>
      <point x="-118" y="1000" type="curve"/>
      <point x="-157" y="1000"/>
      <point x="-182" y="973"/>
      <point x="-182" y="933" type="curve"/>
      <point x="-136" y="933"/>
      <point x="-101" y="933"/>
      <point x="-55" y="933" type="curve"/>
      <point x="-55" y="893"/>
      <point x="-79" y="866"/>
      <point x="-118" y="866" type="curve"/>
      <point x="-157" y="866"/>
      <point x="-182" y="893"/>
      <point x="-182" y="933" type="curve"/>
      <point x="-136" y="933"/>
      <point x="-101" y="933"/>
    </contour>
  </outline>
</glyph>
<glyph name="dvCHA" format="1">
  <advance width="623"/>
  <unicode hex="091B"/>
  <outline>
    <contour>
      <point x="395" y="-32" type="move" name="blwm.virama"/>
    </contour>
    <contour>
      <point x="542" y="720" type="move" name="abvm.e"/>
    </contour>
    <contour>
      <point x="395" y="-111" type="move" name="blwm.u"/>
    </contour>
    <component base="dvCH"/>
    <component base="dvStem_short" xOffset="252"/>
  </outline>
</glyph>
<glyph name="dvDA" format="1">
  <advance width="488"/>
  <unicode hex="0926"/>
  <outline>
    <contour>
      <point x="414" y="-42" type="move" name="blwm.virama"/>
    </contour>
    <contour>
      <point x="399" y="719" type="move" name="abvm.e"/>
    </contour>
    <contour>
      <point x="414" y="-23" type="move" name="blwm.u"/>
    </contour>
    <component base="dvDA_base"/>
    <component base="dvTopbar"/>
    <component base="dvStroke_down" xOffset="-1" yOffset="1"/>
  </outline>
</glyph>
<glyph name="dvPHxA" format="1">
  <advance width="771"/>
  <unicode hex="095E"/>
  <outline>
    <contour>
      <point x="482" y="-38" type="move" name="blwm.virama"/>
    </contour>
    <contour>
      <point x="482" y="719" type="move" name="abvm.e"/>
    </contour>
    <contour>
      <point x="541" y="-107" type="move" name="blwm.u"/>
    </contour>
    <component base="dvPHA"/>
    <component base="dvAnusvara" xOffset="292" yOffset="-955"/>
  </outline>
</glyph>
<glyph name="doubledanda" format="1">
  <advance width="457"/>
  <unicode hex="0965"/>
  <outline>
    <contour>
      <point x="292" y="722" type="curve"/>
      <point x="292" y="481"/>
      <point x="292" y="241"/>
      <point x="292" y="0" type="curve"/>
      <point x="435" y="0"/>
      <point x="292" y="0"/>
      <point x="435" y="0" type="curve"/>
      <point x="435" y="241"/>
      <point x="435" y="481"/>
      <point x="435" y="722" type="curve"/>
      <point x="292" y="722"/>
      <point x="435" y="722"/>
    </contour>
    <contour>
      <point x="91" y="722" type="curve"/>
      <point x="91" y="481"/>
      <point x="91" y="241"/>
      <point x="91" y="0" type="curve"/>
      <point x="234" y="0"/>
      <point x="91" y="0"/>
      <point x="234" y="0" type="curve"/>
      <point x="234" y="241"/>
      <point x="234" y="481"/>
      <point x="234" y="722" type="curve"/>
      <point x="91" y="722"/>
      <point x="234" y="722"/>
    </contour>
  </outline>
</glyph>
<glyph name="guilsinglleft" format="1">
  <advance width="265"/>
  <unicode hex="2039"/>
  <outline>
    <contour>
      <point x="200" y="489" type="curve"/>
      <point x="158" y="454"/>
      <point x="85" y="393"/>
      <point x="42" y="358" type="curve"/>
      <point x="42" y="236"/>
      <point x="42" y="338"/>
      <point x="42" y="216" type="curve"/>
      <point x="85" y="251"/>
      <point x="158" y="323"/>
      <point x="200" y="358" type="curve"/>
      <point x="200" y="479"/>
      <point x="200" y="368"/>
    </contour>
    <contour>
      <point x="200" y="219" type="curve"/>
      <point x="158" y="254"/>
      <point x="85" y="323"/>
      <point x="42" y="358" type="curve"/>
      <point x="42" y="236"/>
      <point x="42" y="338"/>
      <point x="42" y="216" type="curve"/>
      <point x="85" y="181"/>
      <point x="158" y="122"/>
      <point x="200" y="88" type="curve"/>
      <point x="200" y="209"/>
      <point x="200" y="98"/>
    </contour>
  </outline>
</glyph>
<glyph name="estimated" format="1">
  <advance width="711"/>
  <unicode hex="212E"/>
  <outline>
    <contour>
      <point x="549" y="178" type="curve"/>
      <point x="502" y="127"/>
      <point x="453" y="111"/>
      <point x="384" y="111" type="curve"/>
      <point x="249" y="111"/>
      <point x="192" y="222"/>
      <point x="192" y="370" type="curve"/>
      <point x="192" y="507"/>
      <point x="239" y="613"/>
      <point x="362" y="613" type="curve"/>
      <point x="479" y="613"/>
      <point x="533" y="521"/>
      <point x="533" y="395" type="curve"/>
      <point x="533" y="384"/>
      <point x="533" y="377"/>
      <point x="533" y="366" type="curve"/>
      <point x="546" y="379"/>
      <point x="556" y="387"/>
      <point x="569" y="400" type="curve"/>
      <point x="581" y="412"/>
      <point x="596" y="409"/>
      <point x="608" y="422" type="curve"/>
      <point x="426" y="422"/>
      <point x="303" y="422"/>
      <point x="121" y="422" type="curve"/>
      <point x="121" y="383"/>
      <point x="121" y="357"/>
      <point x="121" y="318" type="curve"/>
      <point x="303" y="318"/>
      <point x="426" y="318"/>
      <point x="608" y="318" type="curve"/>
      <point x="631" y="318"/>
      <point x="646" y="318"/>
      <point x="669" y="318" type="curve"/>
      <point x="669" y="336"/>
      <point x="669" y="348"/>
      <point x="669" y="366" type="curve"/>
      <point x="669" y="373"/>
      <point x="669" y="377"/>
      <point x="669" y="384" type="curve"/>
      <point x="669" y="589"/>
      <point x="564" y="728"/>
      <point x="368" y="728" type="curve"/>
      <point x="162" y="728"/>
      <point x="49" y="584"/>
      <point x="49" y="370" type="curve"/>
      <point x="49" y="146"/>
      <point x="168" y="-5"/>
      <point x="384" y="-5" type="curve"/>
      <point x="489" y="-5"/>
      <point x="559" y="26"/>
      <point x="635" y="100" type="curve"/>
      <point x="603" y="130"/>
      <point x="581" y="148"/>
    </contour>
    <contour>
      <point x="277" y="121" type="line"/>
      <point x="277" y="606" type="line"/>
      <point x="148" y="559" type="line"/>
      <point x="91" y="368" type="line"/>
      <point x="126" y="159" type="line"/>
    </contour>
    <contour>
      <point x="548" y="390" type="line"/>
      <point x="533" y="524" type="line"/>
      <point x="450" y="595" type="line"/>
      <point x="450" y="399" type="line"/>
    </contour>
  </outline>
</glyph>
<glyph name="divisionslash" format="1">
  <advance width="444"/>
  <unicode hex="2215"/>
  <outline>
    <contour>
      <point x="100" y="-35" type="line"/>
      <point x="420" y="707" type="line"/>
      <point x="290" y="707" type="line"/>
      <point x="-30" y="-35" type="line"/>
    </contour>
  </outline>
</glyph>
<glyph name="infinity" format="1">
  <advance width="734"/>
  <unicode hex="221E"/>
  <outline>
    <contour>
      <point x="230" y="205" type="curve"/>
      <point x="318" y="205"/>
      <point x="370" y="280"/>
      <point x="407" y="363" type="curve"/>
      <point x="428" y="414"/>
      <point x="447" y="477"/>
      <point x="501" y="477" type="curve"/>
      <point x="538" y="477"/>
      <point x="552" y="441"/>
      <point x="552" y="400" type="curve"/>
      <point x="552" y="358"/>
      <point x="539" y="316"/>
      <point x="501" y="316" type="curve"/>
      <point x="442" y="316"/>
      <point x="439" y="389"/>
      <point x="415" y="444" type="curve"/>
      <point x="379" y="524"/>
      <point x="317" y="589"/>
      <point x="231" y="589" type="curve"/>
      <point x="124" y="589"/>
      <point x="49" y="507"/>
      <point x="49" y="399" type="curve"/>
      <point x="49" y="290"/>
      <point x="121" y="205"/>
      <point x="230" y="205" type="curve"/>
      <point x="230" y="315"/>
      <point x="230" y="205"/>
      <point x="230" y="315" type="curve"/>
      <point x="193" y="315"/>
      <point x="184" y="359"/>
      <point x="184" y="400" type="curve"/>
      <point x="184" y="440"/>
      <point x="196" y="478"/>
      <point x="231" y="478" type="curve"/>
      <point x="285" y="478"/>
      <point x="290" y="412"/>
      <point x="311" y="361" type="curve"/>
      <point x="348" y="277"/>
      <point x="412" y="206"/>
      <point x="501" y="206" type="curve"/>
      <point x="612" y="206"/>
      <point x="685" y="289"/>
      <point x="685" y="398" type="curve"/>
      <point x="685" y="506"/>
      <point x="611" y="588"/>
      <point x="501" y="588" type="curve"/>
      <point x="414" y="588"/>
      <point x="356" y="521"/>
      <point x="320" y="440" type="curve"/>
      <point x="296" y="387"/>
      <point x="289" y="315"/>
      <point x="230" y="315" type="curve"/>
      <point x="230" y="205"/>
      <point x="230" y="315"/>
    </contour>
  </outline>
</glyph>
<glyph name="fl" format="1">
  <advance width="615"/>
  <unicode hex="FB02"/>
  <outline>
    <contour>
      <point x="162" y="-1" type="curve"/>
      <point x="206" y="-1"/>
      <point x="252" y="0"/>
      <point x="297" y="0" type="curve"/>
      <point x="297" y="111"/>
      <point x="297" y="0"/>
      <point x="297" y="111" type="curve"/>
      <point x="162" y="110"/>
      <point x="297" y="111"/>
      <point x="162" y="110" type="curve"/>
      <point x="162" y="-1"/>
      <point x="162" y="110"/>
    </contour>
    <contour>
      <point x="162" y="110" type="curve"/>
      <point x="26" y="111"/>
      <point x="162" y="110"/>
      <point x="26" y="111" type="curve"/>
      <point x="26" y="0"/>
      <point x="26" y="111"/>
      <point x="26" y="0" type="curve"/>
      <point x="71" y="0"/>
      <point x="117" y="-1"/>
      <point x="162" y="-1" type="curve"/>
      <point x="162" y="110"/>
      <point x="162" y="-1"/>
    </contour>
    <contour>
      <point x="23" y="423" type="curve"/>
      <point x="339" y="423" type="line"/>
      <point x="339" y="533"/>
      <point x="339" y="423"/>
      <point x="339" y="533" type="curve"/>
      <point x="23" y="533" type="line"/>
      <point x="23" y="423"/>
      <point x="23" y="533"/>
    </contour>
    <contour>
      <point x="233" y="0" type="curve"/>
      <point x="233" y="223"/>
      <point x="233" y="381"/>
      <point x="233" y="604" type="curve"/>
      <point x="233" y="670"/>
      <point x="282" y="699"/>
      <point x="345" y="699" type="curve"/>
      <point x="394" y="699"/>
      <point x="441" y="688"/>
      <point x="472" y="681" type="curve"/>
      <point x="493" y="714"/>
      <point x="509" y="736"/>
      <point x="530" y="769" type="curve"/>
      <point x="475" y="795"/>
      <point x="407" y="805"/>
      <point x="330" y="805" type="curve"/>
      <point x="190" y="805"/>
      <point x="89" y="735"/>
      <point x="90" y="604" type="curve"/>
      <point x="90" y="0" type="line"/>
      <point x="233" y="0"/>
      <point x="90" y="0"/>
    </contour>
    <contour>
      <point x="459" y="110" type="curve"/>
      <point x="322" y="110"/>
      <point x="459" y="110"/>
      <point x="322" y="110" type="curve"/>
      <point x="322" y="0"/>
      <point x="322" y="110"/>
      <point x="322" y="0" type="curve"/>
      <point x="368" y="0"/>
      <point x="413" y="0"/>
      <point x="459" y="0" type="curve"/>
      <point x="459" y="111"/>
      <point x="459" y="-1"/>
    </contour>
    <contour>
      <point x="459" y="0" type="curve"/>
      <point x="505" y="0"/>
      <point x="551" y="0"/>
      <point x="597" y="0" type="curve"/>
      <point x="597" y="110"/>
      <point x="597" y="0"/>
      <point x="597" y="110" type="curve"/>
      <point x="459" y="110"/>
      <point x="597" y="110"/>
      <point x="459" y="110" type="curve"/>
      <point x="459" y="-1"/>
      <point x="459" y="111"/>
    </contour>
    <contour>
      <point x="530" y="0" type="curve"/>
      <point x="530" y="257"/>
      <point x="530" y="512"/>
      <point x="530" y="769" type="curve"/>
      <point x="387" y="769"/>
      <point x="530" y="769"/>
      <point x="387" y="769" type="curve"/>
      <point x="387" y="512"/>
      <point x="387" y="257"/>
      <point x="387" y="0" type="curve"/>
      <point x="530" y="0"/>
      <point x="387" y="0"/>
    </contour>
  </outline>
</glyph>
<glyph name="Tcedilla" format="1">
  <advance width="507"/>
  <outline>
    <contour>
      <point x="21" y="666" type="curve"/>
      <point x="21" y="546"/>
      <point x="21" y="666"/>
      <point x="21" y="546" type="curve"/>
      <point x="132" y="546"/>
      <point x="21" y="546"/>
      <point x="132" y="546" type="curve"/>
      <point x="132" y="666"/>
      <point x="132" y="546"/>
      <point x="132" y="666" type="curve"/>
      <point x="21" y="666"/>
      <point x="132" y="666"/>
    </contour>
    <contour>
      <point x="374" y="666" type="curve"/>
      <point x="374" y="546"/>
      <point x="374" y="666"/>
      <point x="374" y="546" type="curve"/>
      <point x="486" y="546"/>
      <point x="374" y="546"/>
      <point x="486" y="546" type="curve"/>
      <point x="486" y="666"/>
      <point x="486" y="546"/>
      <point x="486" y="666" type="curve"/>
      <point x="374" y="666"/>
      <point x="486" y="666"/>
    </contour>
    <contour>
      <point x="252" y="0" type="curve"/>
      <point x="298" y="0"/>
      <point x="344" y="0"/>
      <point x="390" y="0" type="curve"/>
      <point x="390" y="110"/>
      <point x="390" y="0"/>
      <point x="390" y="110" type="curve"/>
      <point x="252" y="110"/>
      <point x="390" y="110"/>
      <point x="252" y="110" type="curve"/>
      <point x="252" y="0"/>
      <point x="252" y="110"/>
    </contour>
    <contour>
      <point x="252" y="110" type="curve"/>
      <point x="115" y="110"/>
      <point x="252" y="110"/>
      <point x="115" y="110" type="curve"/>
      <point x="115" y="0"/>
      <point x="115" y="110"/>
      <point x="115" y="0" type="curve"/>
      <point x="161" y="0"/>
      <point x="207" y="0"/>
      <point x="252" y="0" type="curve"/>
      <point x="252" y="110"/>
      <point x="252" y="0"/>
    </contour>
    <contour>
      <point x="325" y="0" type="curve"/>
      <point x="325" y="237"/>
      <point x="325" y="473"/>
      <point x="325" y="710" type="curve"/>
      <point x="182" y="710"/>
      <point x="325" y="710"/>
      <point x="182" y="710" type="curve"/>
      <point x="181" y="473"/>
      <point x="182" y="237"/>
      <point x="182" y="0" type="curve"/>
      <point x="325" y="0"/>
      <point x="182" y="0"/>
    </contour>
    <contour>
      <point x="21" y="605" type="curve"/>
      <point x="175" y="605"/>
      <point x="331" y="605"/>
      <point x="486" y="605" type="curve"/>
      <point x="486" y="727"/>
      <point x="486" y="600"/>
      <point x="486" y="722" type="curve"/>
      <point x="331" y="722"/>
      <point x="175" y="722"/>
      <point x="21" y="722" type="curve"/>
      <point x="21" y="600"/>
      <point x="21" y="727"/>
    </contour>
    <contour>
      <point x="222" y="95" type="curve"/>
      <point x="212" y="74"/>
      <point x="172" y="-22"/>
      <point x="162" y="-44" type="curve"/>
      <point x="260" y="-132"/>
      <point x="162" y="-44"/>
      <point x="260" y="-132" type="curve"/>
      <point x="272" y="-106"/>
      <point x="320" y="-8"/>
      <point x="332" y="18" type="curve"/>
      <point x="222" y="95"/>
      <point x="332" y="18"/>
    </contour>
    <contour>
      <point x="260" y="-132" type="curve"/>
      <point x="265" y="-128"/>
      <point x="269" y="-124"/>
      <point x="275" y="-124" type="curve"/>
      <point x="281" y="-124"/>
      <point x="287" y="-127"/>
      <point x="287" y="-136" type="curve"/>
      <point x="287" y="-149"/>
      <point x="273" y="-153"/>
      <point x="259" y="-153" type="curve"/>
      <point x="241" y="-153"/>
      <point x="226" y="-149"/>
      <point x="210" y="-139" type="curve"/>
      <point x="156" y="-219"/>
      <point x="210" y="-139"/>
      <point x="156" y="-219" type="curve"/>
      <point x="186" y="-239"/>
      <point x="215" y="-247"/>
      <point x="252" y="-247" type="curve"/>
      <point x="323" y="-247"/>
      <point x="372" y="-208"/>
      <point x="372" y="-134" type="curve"/>
      <point x="372" y="-64"/>
      <point x="328" y="-20"/>
      <point x="259" y="-20" type="curve"/>
      <point x="222" y="-20"/>
      <point x="195" y="-25"/>
      <point x="162" y="-44" type="curve"/>
      <point x="260" y="-132"/>
      <point x="162" y="-44"/>
    </contour>
  </outline>
</glyph>
<glyph name="asciicircum" format="1">
  <advance width="487"/>
  <outline>
    <contour>
      <point x="184" y="453" type="curve"/>
      <point x="227" y="554"/>
      <point x="271" y="654"/>
      <point x="315" y="754" type="curve"/>
      <point x="172" y="754"/>
      <point x="315" y="754"/>
      <point x="172" y="754" type="curve"/>
      <point x="128" y="654"/>
      <point x="84" y="554"/>
      <point x="41" y="453" type="curve"/>
      <point x="184" y="453"/>
      <point x="41" y="453"/>
    </contour>
    <contour>
      <point x="446" y="453" type="curve"/>
      <point x="403" y="552"/>
      <point x="358" y="654"/>
      <point x="315" y="754" type="curve"/>
      <point x="172" y="754"/>
      <point x="315" y="754"/>
      <point x="172" y="754" type="curve"/>
      <point x="215" y="654"/>
      <point x="260" y="552"/>
      <point x="303" y="453" type="curve"/>
      <point x="446" y="453"/>
      <point x="303" y="453"/>
    </contour>
  </outline>
</glyph>
<glyph name="daggerdbl" format="1">
  <advance width="622"/>
  <outline>
    <contour>
      <point x="50" y="411" type="curve"/>
      <point x="571" y="411" type="line"/>
      <point x="571" y="532"/>
      <point x="571" y="411"/>
      <point x="571" y="532" type="curve"/>
      <point x="50" y="532" type="line"/>
      <point x="50" y="411"/>
      <point x="50" y="532"/>
    </contour>
    <contour>
      <point x="377" y="-301" type="curve"/>
      <point x="377" y="750" type="line"/>
      <point x="234" y="750"/>
      <point x="387" y="750"/>
      <point x="244" y="750" type="curve"/>
      <point x="244" y="-301" type="line"/>
      <point x="387" y="-301"/>
      <point x="234" y="-301"/>
    </contour>
    <contour>
      <point x="50" y="-71" type="curve"/>
      <point x="571" y="-71" type="line"/>
      <point x="571" y="50"/>
      <point x="571" y="-71"/>
      <point x="571" y="50" type="curve"/>
      <point x="50" y="50" type="line"/>
      <point x="50" y="-71"/>
      <point x="50" y="50"/>
    </contour>
  </outline>
</glyph>
<glyph name="dcroat" format="1">
  <advance width="566"/>
  <outline>
    <contour>
      <point x="427" y="800" type="curve"/>
      <point x="381" y="800"/>
      <point x="337" y="800"/>
      <point x="291" y="800" type="curve"/>
      <point x="291" y="690"/>
      <point x="291" y="800"/>
      <point x="291" y="690" type="curve"/>
      <point x="428" y="690"/>
      <point x="291" y="690"/>
      <point x="428" y="690" type="curve"/>
      <point x="428" y="800"/>
      <point x="427" y="690"/>
    </contour>
    <contour>
      <point x="429" y="0" type="curve"/>
      <point x="475" y="0"/>
      <point x="520" y="0"/>
      <point x="566" y="0" type="curve"/>
      <point x="566" y="110"/>
      <point x="566" y="0"/>
      <point x="566" y="110" type="curve"/>
      <point x="429" y="110"/>
      <point x="566" y="110"/>
      <point x="429" y="110" type="curve"/>
      <point x="429" y="-1"/>
      <point x="429" y="111"/>
    </contour>
    <contour>
      <point x="432" y="451" type="curve"/>
      <point x="386" y="507"/>
      <point x="328" y="533"/>
      <point x="254" y="533" type="curve"/>
      <point x="107" y="533"/>
      <point x="38" y="413"/>
      <point x="38" y="262" type="curve"/>
      <point x="38" y="114"/>
      <point x="111" y="0"/>
      <point x="250" y="0" type="curve"/>
      <point x="334" y="0"/>
      <point x="394" y="38"/>
      <point x="432" y="112" type="curve"/>
      <point x="383" y="189"/>
      <point x="432" y="112"/>
      <point x="383" y="189" type="curve"/>
      <point x="359" y="144"/>
      <point x="330" y="110"/>
      <point x="279" y="110" type="curve"/>
      <point x="204" y="110"/>
      <point x="181" y="183"/>
      <point x="181" y="268" type="curve"/>
      <point x="181" y="352"/>
      <point x="209" y="423"/>
      <point x="284" y="423" type="curve"/>
      <point x="327" y="423"/>
      <point x="358" y="401"/>
      <point x="383" y="368" type="curve"/>
      <point x="432" y="451"/>
      <point x="383" y="368"/>
    </contour>
    <contour>
      <point x="503" y="0" type="curve"/>
      <point x="503" y="267"/>
      <point x="503" y="533"/>
      <point x="503" y="800" type="curve"/>
      <point x="354" y="800"/>
      <point x="503" y="800"/>
      <point x="354" y="800" type="curve"/>
      <point x="354" y="533"/>
      <point x="354" y="267"/>
      <point x="354" y="0" type="curve"/>
      <point x="503" y="0"/>
      <point x="354" y="0"/>
    </contour>
    <contour>
      <point x="257" y="571" type="curve"/>
      <point x="352" y="571"/>
      <point x="447" y="571"/>
      <point x="543" y="571" type="curve"/>
      <point x="543" y="660"/>
      <point x="543" y="571"/>
      <point x="543" y="660" type="curve"/>
      <point x="447" y="660"/>
      <point x="352" y="660"/>
      <point x="257" y="660" type="curve"/>
      <point x="257" y="571"/>
      <point x="257" y="660"/>
    </contour>
  </outline>
</glyph>
<glyph name="dvBH" format="1">
  <advance width="433"/>
  <outline>
    <contour>
      <point x="170" y="530" type="line"/>
      <point x="173" y="574"/>
      <point x="177" y="617"/>
      <point x="210" y="617" type="curve"/>
      <point x="245" y="617"/>
      <point x="245" y="580"/>
      <point x="245" y="539" type="curve"/>
      <point x="245" y="448"/>
      <point x="245" y="382"/>
      <point x="245" y="291" type="curve"/>
      <point x="245" y="238"/>
      <point x="248" y="185"/>
      <point x="209" y="185" type="curve"/>
      <point x="170" y="185"/>
      <point x="169" y="227"/>
      <point x="169" y="272" type="curve"/>
      <point x="169" y="309"/>
      <point x="190" y="334"/>
      <point x="225" y="334" type="curve"/>
      <point x="348" y="334"/>
      <point x="436" y="334"/>
      <point x="559" y="334" type="curve"/>
      <point x="559" y="375"/>
      <point x="559" y="404"/>
      <point x="559" y="445" type="curve"/>
      <point x="434" y="445"/>
      <point x="343" y="445"/>
      <point x="218" y="445" type="curve"/>
      <point x="109" y="445"/>
      <point x="42" y="372"/>
      <point x="42" y="262" type="curve"/>
      <point x="42" y="149"/>
      <point x="110" y="74"/>
      <point x="221" y="74" type="curve"/>
      <point x="330" y="74"/>
      <point x="388" y="158"/>
      <point x="388" y="273" type="curve"/>
      <point x="388" y="371"/>
      <point x="388" y="441"/>
      <point x="388" y="539" type="curve"/>
      <point x="388" y="654"/>
      <point x="328" y="727"/>
      <point x="222" y="727" type="curve"/>
      <point x="124" y="727"/>
      <point x="64" y="659"/>
      <point x="63" y="558" type="curve"/>
    </contour>
  </outline>
</glyph>
<glyph name="dvBH_RA" format="1">
  <advance width="670"/>
  <outline>
    <contour>
      <point x="641" y="-76" type="move" name="blwm.u"/>
    </contour>
    <component base="dvBH_R"/>
    <component base="dvStemright" xOffset="406"/>
  </outline>
</glyph>
<glyph name="dvB_DA" format="1">
  <advance width="762"/>
  <outline>
    <contour>
      <point x="717" y="-86" type="move" name="blwm.virama"/>
    </contour>
    <contour>
      <point x="700" y="722" type="move" name="abvm.e"/>
    </contour>
    <contour>
      <point x="716" y="-145" type="move" name="blwm.u"/>
    </contour>
    <component base="dvDA_base" xOffset="300" yOffset="8"/>
    <component base="dvTopbar" xOffset="274"/>
    <component base="dvStroke_down" yScale="1.03366163044" xOffset="299" yOffset="-1"/>
    <component base="dvB"/>
  </outline>
</glyph>
<glyph name="dvB_open" format="1">
  <advance width="500"/>
  <outline>
    <contour>
      <point x="370" y="218" type="line"/>
      <point x="178" y="467" type="line"/>
      <point x="101" y="420" type="line"/>
      <point x="306" y="166" type="line"/>
    </contour>
    <contour>
      <point x="275" y="547" type="line"/>
      <point x="122" y="547"/>
      <point x="25" y="454"/>
      <point x="25" y="312" type="curve"/>
      <point x="25" y="165"/>
      <point x="101" y="61"/>
      <point x="236" y="61" type="curve"/>
      <point x="376" y="61"/>
      <point x="462" y="162"/>
      <point x="462" y="311" type="curve"/>
      <point x="424" y="311"/>
      <point x="397" y="311"/>
      <point x="359" y="311" type="curve"/>
      <point x="359" y="238"/>
      <point x="332" y="177"/>
      <point x="249" y="177" type="curve"/>
      <point x="185" y="177"/>
      <point x="158" y="236"/>
      <point x="158" y="312" type="curve"/>
      <point x="158" y="381"/>
      <point x="192" y="436"/>
      <point x="275" y="436" type="curve"/>
    </contour>
  </outline>
</glyph>
<glyph name="dvC_CH_VA" format="1">
  <advance width="977"/>
  <outline>
    <contour>
      <point x="791" y="-334" type="move" name="blwm.virama"/>
    </contour>
    <contour>
      <point x="845" y="718" type="move" name="abvm.e"/>
    </contour>
    <contour>
      <point x="791" y="-339" type="move" name="blwm.u"/>
    </contour>
    <component base="dvStroke_down" yScale="1.62956561585" xOffset="378" yOffset="-283"/>
    <component base="dvC_CHA"/>
    <component base="dvVA_open"/>
  </outline>
</glyph>
<glyph name="dvDDH_DDHA" format="1">
  <advance width="534"/>
  <outline>
    <contour>
      <point x="343" y="-305" type="move" name="blwm.virama"/>
    </contour>
    <contour>
      <point x="374" y="716" type="move" name="abvm.e"/>
    </contour>
    <contour>
      <point x="406" y="-377" type="move" name="blwm.u"/>
    </contour>
    <component base="dvDDHA_short" yOffset="-43"/>
    <component base="dvTopbar" xScale="1.08801335279" xOffset="1"/>
    <component base="dvDDHA_open" xOffset="6" yOffset="27"/>
    <component base="dvStem_short" yScale="1.17223340835" xOffset="84" yOffset="-115"/>
  </outline>
</glyph>
<glyph name="dvDD_DDHA" format="1">
  <advance width="503"/>
  <outline>
    <contour>
      <point x="320" y="-290" type="move" name="blwm.virama"/>
    </contour>
    <contour>
      <point x="369" y="714" type="move" name="abvm.e"/>
    </contour>
    <contour>
      <point x="367" y="-360" type="move" name="blwm.u"/>
    </contour>
    <component base="dvTopbar" xScale="1.02717069698" xOffset="1"/>
    <component base="dvDD_short" xOffset="13"/>
    <component base="dvDDHA_open" xOffset="-13" yOffset="57"/>
    <component base="dvStem_short" yScale="1.20513663222" xOffset="78" yOffset="-140"/>
  </outline>
</glyph>
<glyph name="dvDD_VA" format="1">
  <advance width="442"/>
  <outline>
    <contour>
      <point x="420" y="-237" type="move" name="blwm.virama"/>
    </contour>
    <contour>
      <point x="364" y="721" type="move" name="abvm.e"/>
    </contour>
    <contour>
      <point x="420" y="-243" type="move" name="blwm.u"/>
    </contour>
    <component base="dvTopbar" xScale="1.04362965032" xOffset="1"/>
    <component base="dvDD_short" xOffset="11" yOffset="-10"/>
    <component base="dvStroke_down" yScale="1.54359949447" xOffset="9" yOffset="-199"/>
    <component base="dvVA_open" xOffset="-365" yOffset="84"/>
    <component base="dvStem_short" yScale="1.20513663222" xOffset="78" yOffset="-150"/>
  </outline>
</glyph>
<glyph name="dvDD_low" format="1">
  <advance width="500"/>
  <outline>
    <contour>
      <point x="163" y="-41" type="curve"/>
      <point x="181" y="-28"/>
      <point x="215" y="-4"/>
      <point x="257" y="-5" type="curve"/>
      <point x="282" y="-5"/>
      <point x="296" y="-15"/>
      <point x="296" y="-38" type="curve"/>
      <point x="296" y="-58"/>
      <point x="276" y="-74"/>
      <point x="254" y="-74" type="curve"/>
      <point x="203" y="-74"/>
      <point x="140" y="-55"/>
      <point x="101" y="-32" type="curve"/>
      <point x="36" y="-122"/>
      <point x="101" y="-32"/>
      <point x="36" y="-122" type="curve"/>
      <point x="107" y="-166"/>
      <point x="161" y="-184"/>
      <point x="247" y="-184" type="curve"/>
      <point x="355" y="-184"/>
      <point x="439" y="-130"/>
      <point x="439" y="-29" type="curve"/>
      <point x="437" y="62"/>
      <point x="362" y="101"/>
      <point x="270" y="100" type="curve"/>
      <point x="235" y="99"/>
      <point x="208" y="95"/>
      <point x="178" y="77" type="curve"/>
      <point x="163" y="-41"/>
      <point x="178" y="77"/>
    </contour>
    <contour>
      <point x="219" y="235" type="line"/>
      <point x="118" y="235"/>
      <point x="34" y="196"/>
      <point x="34" y="97" type="curve"/>
      <point x="34" y="20"/>
      <point x="94" y="-18"/>
      <point x="163" y="-41" type="curve"/>
      <point x="178" y="77"/>
      <point x="163" y="-41"/>
      <point x="178" y="77" type="curve"/>
      <point x="170" y="81"/>
      <point x="167" y="90"/>
      <point x="167" y="98" type="curve"/>
      <point x="167" y="128"/>
      <point x="200" y="132"/>
      <point x="225" y="132" type="curve"/>
    </contour>
  </outline>
</glyph>
<glyph name="dvDoublevirama" format="1">
  <advance width="500"/>
  <outline>
    <contour>
      <point x="183" y="-84" type="line"/>
      <point x="290" y="72" type="line"/>
      <point x="164" y="72" type="line"/>
      <point x="47" y="-84" type="line"/>
    </contour>
    <contour>
      <point x="462" y="-84" type="line"/>
      <point x="345" y="72" type="line"/>
      <point x="219" y="72" type="line"/>
      <point x="326" y="-84" type="line"/>
    </contour>
  </outline>
</glyph>
<glyph name="dvEyelash" format="1">
  <advance width="173"/>
  <outline>
    <contour>
      <point x="251" y="474" type="line"/>
      <point x="232" y="448"/>
      <point x="213" y="429"/>
      <point x="182" y="429" type="curve"/>
      <point x="132" y="429"/>
      <point x="127" y="479"/>
      <point x="127" y="532" type="curve"/>
      <point x="-17" y="532" type="line"/>
      <point x="-17" y="411"/>
      <point x="58" y="322"/>
      <point x="176" y="322" type="curve"/>
      <point x="245" y="322"/>
      <point x="297" y="355"/>
      <point x="330" y="413" type="curve"/>
    </contour>
    <component base="dvTopbar" xScale="0.662095396168" xOffset="-7"/>
  </outline>
</glyph>
<glyph name="dvG_base" format="1">
  <advance width="500"/>
  <outline>
    <contour>
      <point x="97" y="619" type="curve"/>
      <point x="161" y="583"/>
      <point x="226" y="505"/>
      <point x="226" y="404" type="curve"/>
      <point x="226" y="350"/>
      <point x="214" y="300"/>
      <point x="172" y="300" type="curve"/>
      <point x="138" y="300"/>
      <point x="119" y="326"/>
      <point x="103" y="354" type="curve"/>
      <point x="23" y="279" type="line"/>
      <point x="56" y="215"/>
      <point x="114" y="185"/>
      <point x="186" y="185" type="curve"/>
      <point x="301" y="185"/>
      <point x="348" y="280"/>
      <point x="348" y="412" type="curve"/>
      <point x="347" y="524"/>
      <point x="293" y="624"/>
      <point x="198" y="680" type="curve"/>
      <point x="162" y="658"/>
      <point x="133" y="641"/>
    </contour>
  </outline>
</glyph>
<glyph name="dvJH_base" format="1">
  <advance width="500"/>
  <outline>
    <contour>
      <point x="378" y="436" type="curve"/>
      <point x="378" y="512"/>
      <point x="378" y="570"/>
      <point x="378" y="646" type="curve"/>
      <point x="326" y="646"/>
      <point x="287" y="646"/>
      <point x="235" y="646" type="curve"/>
      <point x="235" y="610"/>
      <point x="235" y="582"/>
      <point x="235" y="546" type="curve"/>
      <point x="287" y="506"/>
      <point x="326" y="476"/>
    </contour>
    <contour>
      <point x="235" y="546" type="curve"/>
      <point x="229" y="546"/>
      <point x="225" y="546"/>
      <point x="219" y="546" type="curve"/>
      <point x="115" y="546"/>
      <point x="36" y="493"/>
      <point x="36" y="396" type="curve"/>
      <point x="36" y="313"/>
      <point x="95" y="259"/>
      <point x="171" y="233" type="curve"/>
      <point x="178" y="280"/>
      <point x="183" y="312"/>
      <point x="190" y="358" type="curve"/>
      <point x="173" y="367"/>
      <point x="163" y="381"/>
      <point x="163" y="400" type="curve"/>
      <point x="163" y="427"/>
      <point x="189" y="436"/>
      <point x="219" y="436" type="curve"/>
      <point x="276" y="436"/>
      <point x="321" y="436"/>
      <point x="378" y="436" type="curve"/>
      <point x="326" y="476"/>
      <point x="287" y="506"/>
    </contour>
    <contour>
      <point x="72" y="106" type="line"/>
      <point x="112" y="42"/>
      <point x="155" y="12"/>
      <point x="243" y="12" type="curve"/>
      <point x="361" y="12"/>
      <point x="437" y="94"/>
      <point x="437" y="213" type="curve"/>
      <point x="435" y="309"/>
      <point x="382" y="381"/>
      <point x="291" y="381" type="curve"/>
      <point x="253" y="381"/>
      <point x="225" y="374"/>
      <point x="190" y="358" type="curve"/>
      <point x="183" y="313"/>
      <point x="178" y="278"/>
      <point x="171" y="233" type="curve"/>
      <point x="196" y="246"/>
      <point x="216" y="255"/>
      <point x="244" y="256" type="curve"/>
      <point x="275" y="256"/>
      <point x="294" y="232"/>
      <point x="294" y="199" type="curve"/>
      <point x="294" y="158"/>
      <point x="276" y="123"/>
      <point x="232" y="123" type="curve"/>
      <point x="195" y="123"/>
      <point x="183" y="142"/>
      <point x="168" y="160" type="curve"/>
    </contour>
  </outline>
</glyph>
<glyph name="dvJ_DDA" format="1">
  <advance width="837"/>
  <outline>
    <contour>
      <point x="705" y="-67" type="move" name="blwm.virama"/>
    </contour>
    <contour>
      <point x="788" y="720" type="move" name="abvm.e"/>
    </contour>
    <contour>
      <point x="724" y="-155" type="move" name="blwm.u"/>
    </contour>
    <component base="dvI_base" xOffset="412"/>
    <component base="dvTopbar" xScale="1.66145977338" xOffset="13"/>
    <component base="dvJ_base"/>
  </outline>
</glyph>
<glyph name="dvJ_KA" format="1">
  <advance width="1181"/>
  <outline>
    <contour>
      <point x="890" y="2" type="move" name="blwm.virama"/>
    </contour>
    <contour>
      <point x="890" y="722" type="move" name="abvm.e"/>
    </contour>
    <contour>
      <point x="890" y="2" type="move" name="blwm.u"/>
    </contour>
    <component base="dvKA" xOffset="443"/>
    <component base="dvJ" xOffset="-1"/>
  </outline>
</glyph>
<glyph name="dvJ_NA" format="1">
  <advance width="1053"/>
  <outline>
    <contour>
      <point x="649" y="475" type="curve"/>
      <point x="502" y="475"/>
      <point x="351" y="475"/>
      <point x="204" y="475" type="curve"/>
      <point x="204" y="436"/>
      <point x="204" y="407"/>
      <point x="204" y="368" type="curve"/>
      <point x="351" y="368"/>
      <point x="502" y="368"/>
      <point x="649" y="368" type="curve"/>
      <point x="649" y="407"/>
      <point x="649" y="436"/>
    </contour>
    <contour>
      <point x="19" y="370" type="line"/>
      <point x="30" y="202"/>
      <point x="59" y="46"/>
      <point x="217" y="46" type="curve"/>
      <point x="337" y="46"/>
      <point x="419" y="131"/>
      <point x="419" y="259" type="curve"/>
      <point x="419" y="388"/>
      <point x="333" y="475"/>
      <point x="204" y="475" type="curve"/>
      <point x="204" y="435"/>
      <point x="204" y="404"/>
      <point x="204" y="364" type="curve"/>
      <point x="259" y="364"/>
      <point x="276" y="310"/>
      <point x="276" y="248" type="curve"/>
      <point x="276" y="198"/>
      <point x="256" y="157"/>
      <point x="211" y="157" type="curve"/>
      <point x="144" y="157"/>
      <point x="135" y="287"/>
      <point x="129" y="409" type="curve"/>
    </contour>
    <component base="dvTopbar"/>
    <component base="dvNA" xOffset="428"/>
  </outline>
</glyph>
<glyph name="dvJ_NY_YA" format="1">
  <advance width="1012"/>
  <outline>
    <contour>
      <point x="-20" y="612" type="line"/>
      <point x="508" y="612" type="line"/>
      <point x="508" y="722" type="line"/>
      <point x="-20" y="722" type="line"/>
    </contour>
    <contour>
      <point x="199" y="368" type="line"/>
      <point x="509" y="368" type="line"/>
      <point x="509" y="478" type="line"/>
      <point x="199" y="478" type="line"/>
    </contour>
    <contour>
      <point x="163" y="-51" type="curve"/>
      <point x="163" y="69"/>
      <point x="163" y="193"/>
      <point x="163" y="313" type="curve"/>
      <point x="121" y="313"/>
      <point x="88" y="313"/>
      <point x="46" y="313" type="curve"/>
      <point x="46" y="193"/>
      <point x="46" y="69"/>
      <point x="46" y="-51" type="curve"/>
      <point x="88" y="-51"/>
      <point x="121" y="-51"/>
    </contour>
    <contour>
      <point x="199" y="368" type="line"/>
      <point x="257" y="366"/>
      <point x="298" y="330"/>
      <point x="298" y="272" type="curve"/>
      <point x="298" y="223"/>
      <point x="287" y="180"/>
      <point x="240" y="180" type="curve"/>
      <point x="182" y="180"/>
      <point x="163" y="241"/>
      <point x="163" y="313" type="curve"/>
      <point x="121" y="313"/>
      <point x="88" y="313"/>
      <point x="46" y="313" type="curve"/>
      <point x="46" y="175"/>
      <point x="122" y="70"/>
      <point x="265" y="70" type="curve"/>
      <point x="367" y="70"/>
      <point x="435" y="148"/>
      <point x="435" y="266" type="curve"/>
      <point x="435" y="381"/>
      <point x="357" y="453"/>
      <point x="242" y="461" type="curve"/>
    </contour>
    <component base="dvTopbar" xOffset="408"/>
    <component base="dvYA_base" xOffset="454" yOffset="6"/>
    <component base="dvStemright" xOffset="721"/>
  </outline>
</glyph>
<glyph name="dvJ_open" format="1">
  <advance width="500"/>
  <outline>
    <contour>
      <point x="537" y="515" type="curve"/>
      <point x="417" y="515"/>
      <point x="324" y="515"/>
      <point x="204" y="515" type="curve"/>
      <point x="204" y="475"/>
      <point x="204" y="444"/>
      <point x="204" y="404" type="curve"/>
      <point x="324" y="404"/>
      <point x="417" y="404"/>
      <point x="537" y="404" type="curve"/>
      <point x="537" y="444"/>
      <point x="537" y="475"/>
    </contour>
    <contour>
      <point x="204" y="404" type="curve"/>
      <point x="259" y="404"/>
      <point x="276" y="350"/>
      <point x="276" y="288" type="curve"/>
      <point x="276" y="238"/>
      <point x="256" y="197"/>
      <point x="211" y="197" type="curve"/>
      <point x="148" y="197"/>
      <point x="138" y="264"/>
      <point x="135" y="336" type="curve"/>
      <point x="95" y="322"/>
      <point x="65" y="311"/>
      <point x="25" y="297" type="curve"/>
      <point x="33" y="175"/>
      <point x="100" y="86"/>
      <point x="217" y="86" type="curve"/>
      <point x="340" y="86"/>
      <point x="419" y="174"/>
      <point x="419" y="299" type="curve"/>
      <point x="419" y="428"/>
      <point x="333" y="515"/>
      <point x="204" y="515" type="curve"/>
      <point x="204" y="475"/>
      <point x="204" y="444"/>
    </contour>
  </outline>
</glyph>
<glyph name="dvK_DA" format="1">
  <advance width="1031"/>
  <outline>
    <contour>
      <point x="959" y="-71" type="move" name="blwm.virama"/>
    </contour>
    <contour>
      <point x="938" y="721" type="move" name="abvm.e"/>
    </contour>
    <contour>
      <point x="961" y="-131" type="move" name="blwm.u"/>
    </contour>
    <component base="dvDA" xOffset="543"/>
    <component base="dvK"/>
  </outline>
</glyph>
<glyph name="dvKx_PHA" format="1">
  <advance width="1279"/>
  <outline>
    <contour>
      <point x="991" y="-43" type="move" name="blwm.virama"/>
    </contour>
    <contour>
      <point x="991" y="716" type="move" name="abvm.e"/>
    </contour>
    <contour>
      <point x="1045" y="-113" type="move" name="blwm.u"/>
    </contour>
    <component base="dvPHA" xOffset="508"/>
    <component base="dvAnusvara" xOffset="340" yOffset="-1043"/>
    <component base="dvK"/>
  </outline>
</glyph>
<glyph name="dvKx_RA" format="1">
  <advance width="740"/>
  <outline>
    <contour>
      <point x="451" y="-27" type="move" name="blwm.virama"/>
    </contour>
    <contour>
      <point x="451" y="720" type="move" name="abvm.e"/>
    </contour>
    <contour>
      <point x="451" y="-93" type="move" name="blwm.u"/>
    </contour>
    <component base="dvKA"/>
    <component base="dvAnusvara" xOffset="138" yOffset="-858"/>
    <component base="dvRaker" xOffset="-128" yOffset="-101"/>
  </outline>
</glyph>
<glyph name="dvL_DDA" format="1">
  <advance width="922"/>
  <outline>
    <contour>
      <point x="838" y="-47" type="move" name="blwm.virama"/>
    </contour>
    <contour>
      <point x="856" y="720" type="move" name="abvm.e"/>
    </contour>
    <contour>
      <point x="857" y="-135" type="move" name="blwm.u"/>
    </contour>
    <component base="dvTopbar" xScale="1.16240655408" xOffset="3"/>
    <component base="dvLA_open" xOffset="7" yOffset="-25"/>
    <component base="dvDDA" xOffset="480"/>
  </outline>
</glyph>
<glyph name="dvL_HA" format="1">
  <advance width="958"/>
  <outline>
    <contour>
      <point x="769" y="-139" type="move" name="blwm.virama"/>
    </contour>
    <contour>
      <point x="822" y="718" type="move" name="abvm.e"/>
    </contour>
    <contour>
      <point x="821" y="-221" type="move" name="blwm.u"/>
    </contour>
    <component base="dvTopbar" xScale="1.27613829878" xOffset="6"/>
    <component base="dvLA_open" xOffset="19" yOffset="-27"/>
    <component base="dvHA" xOffset="470"/>
  </outline>
</glyph>
<glyph name="dvNN_TTA" format="1">
  <advance width="918"/>
  <outline>
    <contour>
      <point x="792" y="-13" type="move" name="blwm.virama"/>
    </contour>
    <contour>
      <point x="824" y="721" type="move" name="abvm.e"/>
    </contour>
    <contour>
      <point x="824" y="-99" type="move" name="blwm.u"/>
    </contour>
    <component base="dvTopbar" xScale="1.24531864546" xOffset="5"/>
    <component base="dvTTA" xOffset="426"/>
    <component base="dvNN_base"/>
  </outline>
</glyph>
<glyph name="dvNN_base" format="1">
  <advance width="500"/>
  <outline>
    <contour>
      <point x="50" y="665" type="curve"/>
      <point x="50" y="554"/>
      <point x="50" y="465"/>
      <point x="50" y="354" type="curve"/>
      <point x="50" y="235"/>
      <point x="126" y="149"/>
      <point x="243" y="149" type="curve"/>
      <point x="360" y="149"/>
      <point x="435" y="235"/>
      <point x="435" y="354" type="curve"/>
      <point x="435" y="465"/>
      <point x="435" y="554"/>
      <point x="435" y="665" type="curve"/>
      <point x="384" y="665"/>
      <point x="343" y="665"/>
      <point x="292" y="665" type="curve"/>
      <point x="292" y="548"/>
      <point x="292" y="454"/>
      <point x="292" y="337" type="curve"/>
      <point x="292" y="295"/>
      <point x="279" y="259"/>
      <point x="243" y="259" type="curve"/>
      <point x="206" y="259"/>
      <point x="193" y="295"/>
      <point x="193" y="337" type="curve"/>
      <point x="193" y="454"/>
      <point x="193" y="548"/>
      <point x="193" y="665" type="curve"/>
      <point x="142" y="665"/>
      <point x="101" y="665"/>
    </contour>
  </outline>
</glyph>
<glyph name="dvNY_CHA" format="1">
  <advance width="1088"/>
  <outline>
    <contour>
      <point x="806" y="-25" type="move" name="blwm.virama"/>
    </contour>
    <contour>
      <point x="951" y="722" type="move" name="abvm.e"/>
    </contour>
    <contour>
      <point x="806" y="-104" type="move" name="blwm.u"/>
    </contour>
    <component base="dvCHA" xOffset="411" yOffset="2"/>
    <component base="dvNY_base" xOffset="-3"/>
    <component base="dvTopbar" yOffset="2"/>
    <component base="dvConnector_short" xOffset="21" yOffset="-20"/>
  </outline>
</glyph>
<glyph name="dvN_DA" format="1">
  <advance width="858"/>
  <outline>
    <contour>
      <point x="788" y="-47" type="move" name="blwm.virama"/>
    </contour>
    <contour>
      <point x="769" y="720" type="move" name="abvm.e"/>
    </contour>
    <contour>
      <point x="788" y="-128" type="move" name="blwm.u"/>
    </contour>
    <component base="dvNA_base" xOffset="-50" yOffset="9"/>
    <component base="dvDA" xOffset="370"/>
    <component base="dvTopbar"/>
  </outline>
</glyph>
<glyph name="dvN_DDA" format="1">
  <advance width="817"/>
  <outline>
    <contour>
      <point x="720" y="-49" type="move" name="blwm.virama"/>
    </contour>
    <contour>
      <point x="752" y="718" type="move" name="abvm.e"/>
    </contour>
    <contour>
      <point x="739" y="-137" type="move" name="blwm.u"/>
    </contour>
    <component base="dvNA_base" xOffset="-71" yOffset="9"/>
    <component base="dvDDA" xOffset="375"/>
    <component base="dvTopbar"/>
  </outline>
</glyph>
<glyph name="dvNine" format="1">
  <advance width="538"/>
  <outline>
    <contour>
      <point x="386" y="475" type="curve"/>
      <point x="362" y="409"/>
      <point x="330" y="387"/>
      <point x="268" y="387" type="curve"/>
      <point x="209" y="387"/>
      <point x="182" y="437"/>
      <point x="182" y="502" type="curve"/>
      <point x="182" y="558"/>
      <point x="207" y="602"/>
      <point x="257" y="602" type="curve"/>
      <point x="329" y="602"/>
      <point x="355" y="542"/>
      <point x="355" y="462" type="curve"/>
      <point x="355" y="276"/>
      <point x="265" y="158"/>
      <point x="89" y="94" type="curve"/>
      <point x="144" y="-15"/>
      <point x="89" y="94"/>
      <point x="144" y="-15" type="curve"/>
      <point x="348" y="58"/>
      <point x="491" y="220"/>
      <point x="491" y="468" type="curve"/>
      <point x="491" y="626"/>
      <point x="412" y="734"/>
      <point x="262" y="734" type="curve"/>
      <point x="123" y="734"/>
      <point x="45" y="639"/>
      <point x="45" y="496" type="curve"/>
      <point x="45" y="359"/>
      <point x="122" y="271"/>
      <point x="255" y="271" type="curve"/>
      <point x="368" y="271"/>
      <point x="427" y="376"/>
      <point x="454" y="448" type="curve"/>
      <point x="386" y="475"/>
      <point x="454" y="448"/>
    </contour>
  </outline>
</glyph>
<glyph name="dvPH_TTA" format="1">
  <advance width="1034"/>
  <outline>
    <contour>
      <point x="885" y="-18" type="move" name="blwm.virama"/>
    </contour>
    <contour>
      <point x="942" y="717" type="move" name="abvm.e"/>
    </contour>
    <contour>
      <point x="909" y="-93" type="move" name="blwm.u"/>
    </contour>
    <component base="dvTTA" xOffset="542"/>
    <component base="dvPH" xOffset="-1"/>
  </outline>
</glyph>
<glyph name="dvP_LA" format="1">
  <advance width="976"/>
  <outline>
    <contour>
      <point x="852" y="35" type="move" name="blwm.virama"/>
    </contour>
    <contour>
      <point x="825" y="720" type="move" name="abvm.e"/>
    </contour>
    <contour>
      <point x="823" y="-40" type="move" name="blwm.u"/>
    </contour>
    <component base="dvLA" xOffset="286"/>
    <component base="dvP"/>
  </outline>
</glyph>
<glyph name="dvP_TTHA" format="1">
  <advance width="773"/>
  <outline>
    <contour>
      <point x="604" y="4" type="move" name="blwm.virama"/>
    </contour>
    <contour>
      <point x="596" y="720" type="move" name="abvm.e"/>
    </contour>
    <contour>
      <point x="624" y="-81" type="move" name="blwm.u"/>
    </contour>
    <component base="dvP"/>
    <component base="dvTTHA" xOffset="275"/>
  </outline>
</glyph>
<glyph name="dvRA_mU" format="1">
  <advance width="627"/>
  <outline>
    <contour>
      <point x="490" y="89" type="curve"/>
      <point x="572" y="134"/>
      <point x="610" y="197"/>
      <point x="610" y="279" type="curve"/>
      <point x="610" y="404"/>
      <point x="520" y="469"/>
      <point x="396" y="469" type="curve"/>
      <point x="336" y="469"/>
      <point x="277" y="469"/>
      <point x="217" y="469" type="curve"/>
      <point x="217" y="358"/>
      <point x="217" y="469"/>
      <point x="217" y="358" type="curve"/>
      <point x="272" y="358"/>
      <point x="326" y="358"/>
      <point x="381" y="358" type="curve"/>
      <point x="447" y="358"/>
      <point x="474" y="327"/>
      <point x="474" y="279" type="curve"/>
      <point x="474" y="240"/>
      <point x="460" y="212"/>
      <point x="418" y="188" type="curve"/>
      <point x="490" y="89"/>
      <point x="418" y="188"/>
    </contour>
    <component base="dvTopbar" xScale="1.25006018744" xOffset="5"/>
    <component base="dvRA_base"/>
  </outline>
</glyph>
<glyph name="dvReph" format="1">
  <advance width="0"/>
  <outline>
    <contour>
      <point x="-33" y="722" type="move" name="_abvm.e"/>
    </contour>
    <contour>
      <point x="-32" y="711" type="curve"/>
      <point x="-56" y="749"/>
      <point x="-68" y="787"/>
      <point x="-68" y="837" type="curve"/>
      <point x="-68" y="884"/>
      <point x="-57" y="925"/>
      <point x="-28" y="925" type="curve"/>
      <point x="4" y="925"/>
      <point x="16" y="885"/>
      <point x="30" y="837" type="curve"/>
      <point x="136" y="866" type="line"/>
      <point x="108" y="991"/>
      <point x="49" y="1041"/>
      <point x="-37" y="1041" type="curve"/>
      <point x="-131" y="1041"/>
      <point x="-187" y="956"/>
      <point x="-187" y="842" type="curve"/>
      <point x="-187" y="769"/>
      <point x="-169" y="718"/>
      <point x="-136" y="656" type="curve"/>
      <point x="-98" y="673"/>
      <point x="-70" y="694"/>
    </contour>
  </outline>
</glyph>
<glyph name="dvSH" format="1">
  <advance width="398"/>
  <outline>
    <contour>
      <point x="46" y="402" type="line"/>
      <point x="46" y="197"/>
      <point x="46" y="-4"/>
      <point x="219" y="-4" type="curve"/>
      <point x="310" y="-4"/>
      <point x="380" y="41"/>
      <point x="404" y="128" type="curve"/>
      <point x="289" y="165" type="line"/>
      <point x="281" y="133"/>
      <point x="266" y="107"/>
      <point x="235" y="107" type="curve"/>
      <point x="188" y="107"/>
      <point x="189" y="204"/>
      <point x="189" y="291" type="curve"/>
    </contour>
    <contour>
      <point x="162" y="556" type="line"/>
      <point x="169" y="590"/>
      <point x="185" y="617"/>
      <point x="218" y="617" type="curve"/>
      <point x="254" y="617"/>
      <point x="266" y="580"/>
      <point x="266" y="539" type="curve"/>
      <point x="266" y="431"/>
      <point x="161" y="402"/>
      <point x="46" y="402" type="curve"/>
      <point x="189" y="291" type="line"/>
      <point x="311" y="312"/>
      <point x="384" y="407"/>
      <point x="384" y="536" type="curve"/>
      <point x="384" y="644"/>
      <point x="323" y="727"/>
      <point x="221" y="727" type="curve"/>
      <point x="126" y="727"/>
      <point x="57" y="671"/>
      <point x="47" y="578" type="curve"/>
    </contour>
  </outline>
</glyph>
<glyph name="dvSS_PHA" format="1">
  <advance width="1034"/>
  <outline>
    <contour>
      <point x="743" y="0" type="move" name="blwm.virama"/>
    </contour>
    <contour>
      <point x="740" y="720" type="move" name="abvm.e"/>
    </contour>
    <contour>
      <point x="743" y="0" type="move" name="blwm.u"/>
    </contour>
    <component base="dvSS"/>
    <component base="dvPHA" xOffset="263"/>
  </outline>
</glyph>
<glyph name="dvSS_TT_RA" format="1">
  <advance width="763"/>
  <outline>
    <contour>
      <point x="615" y="-132" type="move" name="blwm.virama"/>
    </contour>
    <contour>
      <point x="668" y="720" type="move" name="abvm.e"/>
    </contour>
    <contour>
      <point x="647" y="-198" type="move" name="blwm.u"/>
    </contour>
    <component base="dvSS"/>
    <component base="dvTT_RA" xOffset="271"/>
  </outline>
</glyph>
<glyph name="dvS_JA" format="1">
  <advance width="1061"/>
  <outline>
    <contour>
      <point x="451" y="418" type="line"/>
      <point x="423" y="388"/>
      <point x="389" y="377"/>
      <point x="348" y="377" type="curve" smooth="yes"/>
      <point x="304" y="377"/>
      <point x="274" y="398"/>
      <point x="237" y="421" type="curve"/>
      <point x="172" y="346" type="line"/>
      <point x="226" y="308"/>
      <point x="274" y="281"/>
      <point x="340" y="281" type="curve" smooth="yes"/>
      <point x="411" y="281"/>
      <point x="464" y="309"/>
      <point x="516" y="356" type="curve"/>
    </contour>
    <component base="dvJA" xOffset="402"/>
    <component base="dvS"/>
  </outline>
</glyph>
<glyph name="dvS_R" format="1">
  <advance width="387"/>
  <outline>
    <contour>
      <point x="495" y="440" type="line"/>
      <point x="467" y="410"/>
      <point x="429" y="399"/>
      <point x="388" y="399" type="curve" smooth="yes"/>
      <point x="344" y="399"/>
      <point x="294" y="420"/>
      <point x="257" y="443" type="curve"/>
      <point x="192" y="368" type="line"/>
      <point x="246" y="330"/>
      <point x="314" y="303"/>
      <point x="380" y="303" type="curve" smooth="yes"/>
      <point x="451" y="303"/>
      <point x="508" y="331"/>
      <point x="560" y="378" type="curve"/>
    </contour>
    <component base="dvS"/>
    <component base="dvRaker" xOffset="57" yOffset="-121"/>
  </outline>
</glyph>
<glyph name="dvS_TH_YA" format="1">
  <advance width="1306"/>
  <outline>
    <contour>
      <point x="471" y="420" type="line"/>
      <point x="440" y="387"/>
      <point x="401" y="381"/>
      <point x="355" y="381" type="curve" smooth="yes"/>
      <point x="316" y="381"/>
      <point x="290" y="402"/>
      <point x="257" y="423" type="curve"/>
      <point x="192" y="348" type="line"/>
      <point x="242" y="313"/>
      <point x="286" y="285"/>
      <point x="347" y="285" type="curve" smooth="yes"/>
      <point x="422" y="285"/>
      <point x="480" y="308"/>
      <point x="536" y="358" type="curve"/>
    </contour>
    <component base="dvTopbar" xOffset="20"/>
    <component base="dvTH_YA" xOffset="356"/>
    <component base="dvS"/>
  </outline>
</glyph>
<glyph name="dvTA_base" format="1">
  <advance width="500"/>
  <outline>
    <contour>
      <point x="294" y="76" type="curve"/>
      <point x="218" y="118"/>
      <point x="181" y="172"/>
      <point x="181" y="244" type="curve"/>
      <point x="181" y="323"/>
      <point x="207" y="374"/>
      <point x="270" y="374" type="curve"/>
      <point x="325" y="374"/>
      <point x="379" y="374"/>
      <point x="434" y="374" type="curve"/>
      <point x="434" y="485"/>
      <point x="434" y="374"/>
      <point x="434" y="485" type="curve"/>
      <point x="374" y="485"/>
      <point x="315" y="485"/>
      <point x="255" y="485" type="curve"/>
      <point x="133" y="485"/>
      <point x="45" y="403"/>
      <point x="45" y="244" type="curve"/>
      <point x="45" y="128"/>
      <point x="104" y="41"/>
      <point x="222" y="-23" type="curve"/>
      <point x="294" y="76"/>
      <point x="222" y="-23"/>
    </contour>
  </outline>
</glyph>
<glyph name="dvTT_RA" format="1">
  <advance width="492"/>
  <outline>
    <contour>
      <point x="334" y="-118" type="move" name="blwm.virama"/>
    </contour>
    <contour>
      <point x="398" y="722" type="move" name="abvm.e"/>
    </contour>
    <contour>
      <point x="386" y="-185" type="move" name="blwm.u"/>
    </contour>
    <component base="dvTTA"/>
    <component base="dvDoublevirama" xOffset="18" yOffset="15"/>
  </outline>
</glyph>
<glyph name="dvTT_TTA" format="1">
  <advance width="484"/>
  <outline>
    <contour>
      <point x="354" y="-258" type="move" name="blwm.virama"/>
    </contour>
    <contour>
      <point x="396" y="717" type="move" name="abvm.e"/>
    </contour>
    <contour>
      <point x="423" y="-325" type="move" name="blwm.u"/>
    </contour>
    <component base="dvTTA_short" xOffset="-269" yOffset="-14"/>
    <component base="dvTopbar" xScale="0.993742589294"/>
    <component base="dvTTA_base" xOffset="-268" yOffset="-325"/>
  </outline>
</glyph>
<glyph name="dvTT_TTHA" format="1">
  <advance width="491"/>
  <outline>
    <contour>
      <point x="374" y="-284" type="move" name="blwm.virama"/>
    </contour>
    <contour>
      <point x="391" y="722" type="move" name="abvm.e"/>
    </contour>
    <contour>
      <point x="424" y="-358" type="move" name="blwm.u"/>
    </contour>
    <component base="dvTopbar" xScale="1.0215268868" xOffset="-8"/>
    <component base="dvTTA_short" xOffset="-278"/>
    <component base="dvTTH_short" xOffset="13" yOffset="-331"/>
  </outline>
</glyph>
<glyph name="dvT_K_RA" format="1">
  <advance width="1001"/>
  <outline>
    <contour>
      <point x="702" y="-38" type="move" name="blwm.virama"/>
    </contour>
    <contour>
      <point x="709" y="722" type="move" name="abvm.e"/>
    </contour>
    <contour>
      <point x="703" y="-89" type="move" name="blwm.u"/>
    </contour>
    <component base="dvRaker" xOffset="129" yOffset="-102"/>
    <component base="dvT_KA"/>
  </outline>
</glyph>
<glyph name="dvV" format="1">
  <advance width="251"/>
  <outline>
    <contour>
      <point x="315" y="311" type="curve"/>
      <point x="315" y="243"/>
      <point x="296" y="187"/>
      <point x="239" y="187" type="curve"/>
      <point x="178" y="187"/>
      <point x="152" y="242"/>
      <point x="152" y="312" type="curve"/>
      <point x="152" y="375"/>
      <point x="174" y="426"/>
      <point x="228" y="426" type="curve"/>
      <point x="286" y="426"/>
      <point x="315" y="377"/>
      <point x="315" y="311" type="curve"/>
      <point x="364" y="311"/>
      <point x="399" y="311"/>
      <point x="448" y="311" type="curve"/>
      <point x="448" y="447"/>
      <point x="367" y="537"/>
      <point x="235" y="537" type="curve"/>
      <point x="102" y="537"/>
      <point x="19" y="448"/>
      <point x="19" y="312" type="curve"/>
      <point x="19" y="171"/>
      <point x="94" y="71"/>
      <point x="226" y="71" type="curve"/>
      <point x="364" y="71"/>
      <point x="448" y="168"/>
      <point x="448" y="311" type="curve"/>
      <point x="399" y="311"/>
      <point x="364" y="311"/>
    </contour>
    <component base="dvTopbar"/>
  </outline>
</glyph>
<glyph name="dvmAI_Reph_Anusvara" format="1">
  <advance width="0"/>
  <outline>
    <contour>
      <point x="-38" y="723" type="move" name="_abvm.e"/>
    </contour>
    <component base="dvmAI" xOffset="-38" yOffset="-2"/>
    <component base="dvReph_Anusvara" xOffset="-22" yOffset="2"/>
  </outline>
</glyph>
<glyph name="dvmI.a15" format="1">
  <advance width="314"/>
  <outline>
    <contour>
      <point x="1501" y="697" type="move" name="abvm.i"/>
    </contour>
    <contour>
      <point x="229" y="689" type="curve"/>
      <point x="219" y="722"/>
      <point x="214" y="746"/>
      <point x="214" y="780" type="curve"/>
      <point x="214" y="869"/>
      <point x="362" y="894"/>
      <point x="513" y="894" type="curve"/>
      <point x="918" y="894"/>
      <point x="1229" y="783"/>
      <point x="1418" y="642" type="curve"/>
      <point x="1447" y="671"/>
      <point x="1481" y="677"/>
      <point x="1513" y="707" type="curve"/>
      <point x="1292" y="890"/>
      <point x="964" y="1011"/>
      <point x="515" y="1011" type="curve"/>
      <point x="287" y="1011"/>
      <point x="87" y="962"/>
      <point x="87" y="770" type="curve"/>
      <point x="87" y="714"/>
      <point x="102" y="679"/>
      <point x="123" y="633" type="curve"/>
      <point x="160" y="657"/>
      <point x="193" y="664"/>
    </contour>
    <component base="dvmAA" xOffset="34"/>
  </outline>
</glyph>
<glyph name="dvmI.a23" format="1">
  <advance width="314"/>
  <outline>
    <contour>
      <point x="1991" y="697" type="move" name="abvm.i"/>
    </contour>
    <contour>
      <point x="229" y="689" type="curve"/>
      <point x="219" y="722"/>
      <point x="214" y="746"/>
      <point x="214" y="780" type="curve"/>
      <point x="214" y="869"/>
      <point x="354" y="894"/>
      <point x="498" y="894" type="curve"/>
      <point x="1007" y="894"/>
      <point x="1696" y="726"/>
      <point x="1905" y="642" type="curve"/>
      <point x="1934" y="671"/>
      <point x="1968" y="677"/>
      <point x="2000" y="707" type="curve"/>
      <point x="1760" y="834"/>
      <point x="1053" y="1011"/>
      <point x="500" y="1011" type="curve"/>
      <point x="280" y="1011"/>
      <point x="87" y="962"/>
      <point x="87" y="770" type="curve"/>
      <point x="87" y="714"/>
      <point x="102" y="679"/>
      <point x="123" y="633" type="curve"/>
      <point x="160" y="657"/>
      <point x="193" y="664"/>
    </contour>
    <component base="dvmAA" xOffset="34"/>
  </outline>
</glyph>
<glyph name="emdash" format="1">
  <advance width="658"/>
  <outline>
    <contour>
      <point x="62" y="223" type="curve"/>
      <point x="240" y="223"/>
      <point x="418" y="223"/>
      <point x="596" y="223" type="curve"/>
      <point x="596" y="344"/>
      <point x="596" y="223"/>
      <point x="596" y="344" type="curve"/>
      <point x="418" y="344"/>
      <point x="240" y="344"/>
      <point x="62" y="344" type="curve"/>
      <point x="62" y="223"/>
      <point x="62" y="344"/>
    </contour>
  </outline>
</glyph>
<glyph name="fraction" format="1">
  <advance width="456"/>
  <outline>
    <contour>
      <point x="-99" y="705" type="move" name="top"/>
    </contour>
    <contour>
      <point x="501" y="-30" type="move" name="bottom"/>
    </contour>
    <contour>
      <point x="116" y="-35" type="line"/>
      <point x="436" y="707" type="line"/>
      <point x="306" y="707" type="line"/>
      <point x="-14" y="-35" type="line"/>
    </contour>
  </outline>
</glyph>
<glyph name="lslash" format="1">
  <advance width="319"/>
  <outline>
    <contour>
      <point x="54" y="237" type="curve"/>
      <point x="127" y="298"/>
      <point x="200" y="360"/>
      <point x="273" y="421" type="curve"/>
      <point x="273" y="542"/>
      <point x="273" y="421"/>
      <point x="273" y="542" type="curve"/>
      <point x="200" y="481"/>
      <point x="127" y="419"/>
      <point x="54" y="358" type="curve"/>
      <point x="54" y="237"/>
      <point x="54" y="358"/>
    </contour>
    <contour>
      <point x="163" y="110" type="curve"/>
      <point x="26" y="110"/>
      <point x="163" y="110"/>
      <point x="26" y="110" type="curve"/>
      <point x="26" y="0"/>
      <point x="26" y="110"/>
      <point x="26" y="0" type="curve"/>
      <point x="72" y="0"/>
      <point x="117" y="0"/>
      <point x="163" y="0" type="curve"/>
      <point x="163" y="111"/>
      <point x="163" y="-1"/>
    </contour>
    <contour>
      <point x="165" y="800" type="curve"/>
      <point x="119" y="800"/>
      <point x="73" y="800"/>
      <point x="28" y="800" type="curve"/>
      <point x="27" y="690"/>
      <point x="28" y="800"/>
      <point x="27" y="690" type="curve"/>
      <point x="165" y="689"/>
      <point x="27" y="690"/>
      <point x="165" y="689" type="curve"/>
      <point x="165" y="799"/>
      <point x="165" y="690"/>
    </contour>
    <contour>
      <point x="163" y="0" type="curve"/>
      <point x="209" y="0"/>
      <point x="255" y="0"/>
      <point x="301" y="0" type="curve"/>
      <point x="301" y="110"/>
      <point x="301" y="0"/>
      <point x="301" y="110" type="curve"/>
      <point x="163" y="110"/>
      <point x="301" y="110"/>
      <point x="163" y="110" type="curve"/>
      <point x="163" y="-1"/>
      <point x="163" y="111"/>
    </contour>
    <contour>
      <point x="234" y="0" type="curve"/>
      <point x="234" y="267"/>
      <point x="234" y="533"/>
      <point x="234" y="800" type="curve"/>
      <point x="91" y="800"/>
      <point x="234" y="800"/>
      <point x="91" y="800" type="curve"/>
      <point x="91" y="533"/>
      <point x="91" y="267"/>
      <point x="91" y="0" type="curve"/>
      <point x="234" y="0"/>
      <point x="91" y="0"/>
    </contour>
  </outline>
</glyph>
<glyph name="pi" format="1">
  <advance width="592"/>
  <outline>
    <contour>
      <point x="36" y="457" type="curve"/>
      <point x="557" y="457" type="line"/>
      <point x="557" y="578"/>
      <point x="557" y="457"/>
      <point x="557" y="578" type="curve"/>
      <point x="36" y="578" type="line"/>
      <point x="36" y="457"/>
      <point x="36" y="578"/>
    </contour>
    <contour>
      <point x="237" y="58" type="curve"/>
      <point x="237" y="578" type="line"/>
      <point x="94" y="578"/>
      <point x="247" y="578"/>
      <point x="104" y="578" type="curve"/>
      <point x="104" y="58" type="line"/>
      <point x="247" y="58"/>
      <point x="94" y="58"/>
    </contour>
    <contour>
      <point x="490" y="58" type="curve"/>
      <point x="490" y="578" type="line"/>
      <point x="347" y="578"/>
      <point x="500" y="578"/>
      <point x="357" y="578" type="curve"/>
      <point x="357" y="58" type="line"/>
      <point x="500" y="58"/>
      <point x="347" y="58"/>
    </contour>
  </outline>
</glyph>
<glyph name="quotedblbase" format="1">
  <advance width="495"/>
  <outline>
    <contour>
      <point x="58" y="-119" type="line"/>
      <point x="155" y="-119"/>
      <point x="219" y="-49"/>
      <point x="219" y="58" type="curve"/>
      <point x="219" y="147"/>
      <point x="185" y="193"/>
      <point x="138" y="193" type="curve"/>
      <point x="95" y="193"/>
      <point x="65" y="168"/>
      <point x="65" y="121" type="curve"/>
      <point x="65" y="83"/>
      <point x="87" y="53"/>
      <point x="125" y="53" type="curve"/>
      <point x="125" y="26"/>
      <point x="123" y="-29"/>
      <point x="58" y="-41" type="curve"/>
    </contour>
    <contour>
      <point x="269" y="-119" type="line"/>
      <point x="366" y="-119"/>
      <point x="430" y="-49"/>
      <point x="430" y="58" type="curve"/>
      <point x="430" y="147"/>
      <point x="396" y="193"/>
      <point x="349" y="193" type="curve"/>
      <point x="306" y="193"/>
      <point x="276" y="168"/>
      <point x="276" y="121" type="curve"/>
      <point x="276" y="83"/>
      <point x="298" y="53"/>
      <point x="336" y="53" type="curve"/>
      <point x="336" y="26"/>
      <point x="334" y="-29"/>
      <point x="269" y="-41" type="curve"/>
    </contour>
  </outline>
</glyph>
<glyph name="quoteleft" format="1">
  <advance width="241"/>
  <outline>
    <contour>
      <point x="197" y="756" type="line"/>
      <point x="100" y="756"/>
      <point x="36" y="686"/>
      <point x="36" y="579" type="curve"/>
      <point x="36" y="490"/>
      <point x="70" y="444"/>
      <point x="117" y="444" type="curve"/>
      <point x="161" y="444"/>
      <point x="190" y="469"/>
      <point x="190" y="516" type="curve"/>
      <point x="190" y="554"/>
      <point x="169" y="584"/>
      <point x="130" y="584" type="curve"/>
      <point x="130" y="611"/>
      <point x="132" y="666"/>
      <point x="197" y="678" type="curve"/>
    </contour>
  </outline>
</glyph>
<glyph name="ruble" format="1">
  <advance width="579"/>
  <outline>
    <contour>
      <point x="79" y="147" type="curve"/>
      <point x="198" y="147"/>
      <point x="251" y="147"/>
      <point x="371" y="147" type="curve"/>
      <point x="371" y="264"/>
      <point x="371" y="147"/>
      <point x="371" y="264" type="curve"/>
      <point x="251" y="264"/>
      <point x="198" y="264"/>
      <point x="79" y="264" type="curve"/>
      <point x="79" y="147"/>
      <point x="79" y="264"/>
    </contour>
    <contour>
      <point x="202" y="722" type="curve"/>
      <point x="157" y="722"/>
      <point x="111" y="722"/>
      <point x="65" y="722" type="curve"/>
      <point x="65" y="612"/>
      <point x="65" y="722"/>
      <point x="65" y="612" type="curve"/>
      <point x="202" y="612"/>
      <point x="65" y="612"/>
      <point x="202" y="612" type="curve"/>
      <point x="202" y="722"/>
      <point x="202" y="612"/>
    </contour>
    <contour>
      <point x="202" y="110" type="curve"/>
      <point x="65" y="110"/>
      <point x="202" y="110"/>
      <point x="65" y="110" type="curve"/>
      <point x="65" y="0"/>
      <point x="65" y="110"/>
      <point x="65" y="0" type="curve"/>
      <point x="111" y="0"/>
      <point x="157" y="0"/>
      <point x="202" y="0" type="curve"/>
      <point x="202" y="110"/>
      <point x="202" y="0"/>
    </contour>
    <contour>
      <point x="202" y="0" type="curve"/>
      <point x="248" y="0"/>
      <point x="202" y="0"/>
      <point x="340" y="0" type="curve"/>
      <point x="340" y="110"/>
      <point x="340" y="0"/>
      <point x="340" y="110" type="curve"/>
      <point x="202" y="110"/>
      <point x="340" y="110"/>
      <point x="202" y="110" type="curve"/>
      <point x="202" y="0"/>
      <point x="202" y="110"/>
    </contour>
    <contour>
      <point x="273" y="0" type="curve"/>
      <point x="273" y="241"/>
      <point x="273" y="481"/>
      <point x="273" y="722" type="curve"/>
      <point x="130" y="722"/>
      <point x="273" y="722"/>
      <point x="130" y="722" type="curve"/>
      <point x="130" y="481"/>
      <point x="130" y="241"/>
      <point x="130" y="0" type="curve"/>
      <point x="273" y="0"/>
      <point x="130" y="0"/>
    </contour>
    <contour>
      <point x="312" y="299" type="curve"/>
      <point x="452" y="301"/>
      <point x="545" y="379"/>
      <point x="545" y="515" type="curve"/>
      <point x="545" y="649"/>
      <point x="449" y="722"/>
      <point x="309" y="722" type="curve"/>
      <point x="270" y="722"/>
      <point x="244" y="722"/>
      <point x="205" y="722" type="curve"/>
      <point x="205" y="681"/>
      <point x="205" y="653"/>
      <point x="205" y="612" type="curve"/>
      <point x="237" y="612"/>
      <point x="258" y="612"/>
      <point x="290" y="612" type="curve"/>
      <point x="357" y="612"/>
      <point x="402" y="575"/>
      <point x="402" y="510" type="curve"/>
      <point x="402" y="451"/>
      <point x="363" y="416"/>
      <point x="303" y="416" type="curve"/>
      <point x="195" y="416"/>
      <point x="187" y="416"/>
      <point x="79" y="416" type="curve"/>
      <point x="79" y="372"/>
      <point x="79" y="343"/>
      <point x="79" y="299" type="curve"/>
      <point x="191" y="299"/>
      <point x="200" y="299"/>
    </contour>
  </outline>
</glyph>
